<svg width="170" height="133" viewBox="0 0 170 133" fill="none" xmlns="http://www.w3.org/2000/svg">
    <path opacity="0.3" d="M101.47 39.8489C97.5695 32.8489 90.2693 28.3489 82.2693 27.8489C69.2693 27.1489 58.1695 37.0486 57.4695 50.0486C56.7695 63.0486 66.6697 74.1489 79.6697 74.8489L144.97 74.6487C157.97 75.3487 169.069 65.4485 169.769 52.4485C170.469 39.4485 160.569 28.3487 147.569 27.6487C145.369 27.5487 143.169 27.7487 141.069 28.1487C141.269 13.2487 129.67 0.948632 114.87 0.0486319C99.5699 -0.851368 86.4691 10.8487 85.5691 26.1487L85.4695 28.0486" fill="#E4E4ED"/>
    <path d="M135.435 94.4488C134.635 94.4488 133.734 94.149 133.034 93.649C131.234 92.349 130.935 89.8489 132.235 88.0489C135.135 84.0489 136.834 79.3488 137.034 74.4488C137.634 60.8488 127.035 49.249 113.435 48.649C111.135 48.549 108.835 48.7491 106.635 49.2491C105.435 49.5491 104.235 49.2488 103.235 48.4488C102.235 47.6488 101.735 46.5492 101.735 45.3492C101.735 29.3492 89.2351 16.1488 73.1351 15.4488C65.1351 15.0488 57.5351 17.8491 51.6351 23.2491C45.7351 28.6491 42.3349 35.9488 41.9349 43.9488L41.8352 46.3492C41.7352 48.5492 39.9351 50.249 37.6351 50.149C35.4351 50.049 33.7353 48.1488 33.8353 45.9488L33.9349 43.5489C34.4349 33.4489 38.7347 24.0491 46.2347 17.2491C53.7347 10.4491 63.4345 6.94921 73.5345 7.34921C92.2345 8.14921 107.235 22.4489 109.435 40.5489C110.935 40.4489 112.335 40.3488 113.835 40.4488C131.835 41.2488 145.834 56.5489 145.034 74.5489C144.734 81.0489 142.535 87.3489 138.635 92.5489C137.835 93.8489 136.635 94.4488 135.435 94.4488Z" fill="white"/>
    <path d="M20.3351 104.449C19.7351 104.449 19.1349 104.349 18.6349 104.049C6.73494 98.3488 -0.565642 86.2488 0.0343576 73.0488C0.834358 55.5488 15.3346 41.749 32.7346 41.749C33.2346 41.749 33.7346 41.749 34.2346 41.749C45.5346 42.249 55.9347 48.7488 61.4347 58.5488C62.5347 60.4488 61.8351 62.9487 59.8351 63.9487C57.9351 65.0487 55.4347 64.3491 54.4347 62.3491C50.3348 54.8491 42.4347 50.0489 33.9347 49.6489C20.3347 49.0489 8.73494 59.649 8.13494 73.249C7.73494 83.149 13.2346 92.3489 22.2346 96.6489C24.2346 97.6489 25.0349 99.9487 24.1349 101.949C23.2349 103.549 21.8351 104.449 20.3351 104.449Z" fill="white"/>
    <path d="M104.434 127.649C103.434 127.649 102.435 127.249 101.635 126.449C100.035 124.849 100.035 122.349 101.635 120.749L120.434 101.749C122.034 100.149 124.535 100.149 126.135 101.749C127.735 103.349 127.735 105.849 126.135 107.449L107.335 126.449C106.535 127.249 105.434 127.649 104.434 127.649Z" fill="#57AAFF"/>
    <path d="M95.635 104.549C94.635 104.549 93.6352 104.149 92.8352 103.449C91.2352 101.949 91.2346 99.349 92.7346 97.749L106.735 83.249C108.235 81.649 110.835 81.6489 112.435 83.1489C114.035 84.6489 114.034 87.2491 112.534 88.8491L98.5344 103.349C97.7344 104.149 96.735 104.549 95.635 104.549Z" fill="#57AAFF"/>
    <path d="M68.3347 132.349C67.3347 132.349 66.3339 131.949 65.5339 131.249C63.9339 129.749 63.9343 127.149 65.4343 125.549L79.4343 111.049C80.9343 109.449 83.5345 109.449 85.1345 110.949C86.7345 112.449 86.7341 115.049 85.2341 116.649L71.2341 131.149C70.3341 131.949 69.3347 132.349 68.3347 132.349Z" fill="#57AAFF"/>
    <path d="M68.8347 104.749C67.8347 104.749 66.8339 104.349 66.0339 103.649C64.4339 102.149 64.4343 99.5489 65.9343 97.9489L79.9343 83.4489C81.4343 81.8489 84.0345 81.8493 85.6345 83.3493C87.2345 84.8493 87.2341 87.449 85.7341 89.049L71.7341 103.549C70.9341 104.349 69.9347 104.749 68.8347 104.749Z" fill="#57AAFF"/>
    <path d="M37.3351 130.849C36.3351 130.849 35.3343 130.449 34.5343 129.649C32.9343 128.049 32.9343 125.549 34.5343 123.949L46.0343 112.349L32.0343 111.449C30.5343 111.349 29.1349 110.349 28.6349 108.949C28.0349 107.549 28.3347 105.849 29.4347 104.749L47.1349 85.5488C48.6349 83.9488 51.1351 83.849 52.8351 85.349C54.4351 86.849 54.5343 89.3488 53.0343 91.0488L40.9347 104.149L55.3351 105.149C56.9351 105.249 58.2351 106.249 58.8351 107.749C59.4351 109.249 59.0347 110.849 57.9347 111.949L40.2345 129.849C39.3345 130.449 38.3351 130.849 37.3351 130.849Z" fill="#FF7A56"/>
</svg>
