<svg width="148" height="131" viewBox="0 0 148 131" fill="none" xmlns="http://www.w3.org/2000/svg">
    <path d="M126.735 97.6302C125.235 97.6302 123.734 96.7299 123.134 95.3299C122.234 93.3299 123.134 90.9301 125.134 90.0301C133.834 86.0301 139.535 77.7302 139.935 68.1302C140.235 61.4302 137.934 54.93 133.334 49.93C128.734 44.93 122.534 42.0298 115.834 41.7298C113.534 41.6298 111.134 41.83 108.834 42.43C107.634 42.73 106.435 42.4302 105.435 41.6302C104.435 40.8302 103.935 39.7301 103.935 38.5301C103.935 22.1301 91.1347 8.73009 74.7347 8.03009C66.6347 7.63009 58.7347 10.5301 52.7347 16.0301C46.7347 21.5301 43.2343 29.0298 42.8343 37.2298L42.7347 39.6302C42.6347 41.8302 40.8345 43.63 38.5345 43.43C36.3345 43.33 34.6347 41.4298 34.7347 39.2298L34.8343 36.8299C35.3343 26.5299 39.7343 17.0302 47.3343 10.1302C54.9343 3.23019 64.8345 -0.369913 75.0345 0.0300874C94.1345 0.930087 109.434 15.43 111.634 33.93C113.134 33.83 114.634 33.7299 116.134 33.8299C125.034 34.2299 133.235 38.0302 139.235 44.6302C145.235 51.2302 148.335 59.7301 147.935 68.5301C147.335 81.1301 139.935 92.1299 128.435 97.3299C127.835 97.5299 127.335 97.6302 126.735 97.6302Z" fill="white"/>
    <path d="M15.834 95.7302C15.034 95.7302 14.1346 95.4304 13.4346 94.9304C4.53463 88.3304 -0.46576 77.8302 0.0342403 66.7302C0.43424 57.8302 4.23405 49.6306 10.834 43.6306C17.434 37.6306 25.9344 34.5304 34.7344 34.9304C46.3344 35.4304 56.634 41.8304 62.334 51.9304C63.434 53.8304 62.734 56.3303 60.834 57.3303C58.934 58.4303 56.4346 57.7303 55.4346 55.8303C51.1346 48.1303 43.3342 43.3304 34.5342 42.9304C27.7342 42.6304 21.334 44.9305 16.334 49.5305C11.334 54.1305 8.43385 60.3305 8.13385 67.0305C7.73385 75.4305 11.534 83.4304 18.334 88.4304C20.134 89.7304 20.4338 92.2305 19.1339 94.0305C18.3339 95.1305 17.134 95.7302 15.834 95.7302Z" fill="white"/>
    <path d="M93.5342 108.23C91.3342 108.23 89.5342 106.43 89.5342 104.23V90.9302C89.5342 88.7302 91.3342 86.9302 93.5342 86.9302C95.7342 86.9302 97.5342 88.7302 97.5342 90.9302V104.23C97.5342 106.43 95.7342 108.23 93.5342 108.23Z" fill="url(#paint0_linear_0_5830)"/>
    <path d="M111.734 124.33C109.534 124.33 107.734 122.53 107.734 120.33V111.23C107.734 109.03 109.534 107.23 111.734 107.23C113.934 107.23 115.734 109.03 115.734 111.23V120.33C115.734 122.53 113.934 124.33 111.734 124.33Z" fill="url(#paint1_linear_0_5830)"/>
    <path d="M70.6341 97.2298C68.5341 97.2298 66.7341 95.5299 66.6341 93.3299L66.2347 83.5301C66.1347 81.3301 67.8341 79.43 70.1341 79.43C72.3341 79.33 74.2347 81.0299 74.2347 83.3299L74.6341 93.1302C74.7341 95.3302 73.0347 97.2298 70.7347 97.2298H70.6341Z" fill="url(#paint2_linear_0_5830)"/>
    <path d="M77.9346 130.33C75.7346 130.33 73.9346 128.53 73.9346 126.33V117.33C73.9346 115.13 75.7346 113.33 77.9346 113.33C80.1346 113.33 81.9346 115.13 81.9346 117.33V126.33C81.9346 128.53 80.2346 130.33 77.9346 130.33Z" fill="url(#paint3_linear_0_5830)"/>
    <path d="M49.834 116.83C47.634 116.83 45.834 115.03 45.834 112.83V100.03C45.834 97.8303 47.634 96.0303 49.834 96.0303C52.034 96.0303 53.834 97.8303 53.834 100.03V112.83C53.834 115.03 52.034 116.83 49.834 116.83Z" fill="url(#paint4_linear_0_5830)"/>
    <path d="M29.7344 125.73C27.5344 125.73 25.7344 123.93 25.7344 121.73V111.13C25.7344 108.93 27.5344 107.13 29.7344 107.13C31.9344 107.13 33.7344 108.93 33.7344 111.13V121.73C33.7344 123.93 31.9344 125.73 29.7344 125.73Z" fill="url(#paint5_linear_0_5830)"/>
    <defs>
        <linearGradient id="paint0_linear_0_5830" x1="93.7621" y1="106.112" x2="92.2228" y2="89.5591" gradientUnits="userSpaceOnUse">
            <stop stop-color="#409FFF"/>
            <stop offset="1" stop-color="#86C2FF"/>
        </linearGradient>
        <linearGradient id="paint1_linear_0_5830" x1="111.962" y1="122.629" x2="110.967" y2="109.3" gradientUnits="userSpaceOnUse">
            <stop stop-color="#409FFF"/>
            <stop offset="1" stop-color="#86C2FF"/>
        </linearGradient>
        <linearGradient id="paint2_linear_0_5830" x1="70.674" y1="95.4591" x2="69.6474" y2="81.5795" gradientUnits="userSpaceOnUse">
            <stop stop-color="#409FFF"/>
            <stop offset="1" stop-color="#86C2FF"/>
        </linearGradient>
        <linearGradient id="paint3_linear_0_5830" x1="78.1625" y1="128.639" x2="77.1789" y2="115.387" gradientUnits="userSpaceOnUse">
            <stop stop-color="#409FFF"/>
            <stop offset="1" stop-color="#86C2FF"/>
        </linearGradient>
        <linearGradient id="paint4_linear_0_5830" x1="50.0619" y1="114.761" x2="48.5935" y2="98.5911" gradientUnits="userSpaceOnUse">
            <stop stop-color="#409FFF"/>
            <stop offset="1" stop-color="#86C2FF"/>
        </linearGradient>
        <linearGradient id="paint5_linear_0_5830" x1="29.9623" y1="123.88" x2="28.7862" y2="109.397" gradientUnits="userSpaceOnUse">
            <stop stop-color="#409FFF"/>
            <stop offset="1" stop-color="#86C2FF"/>
        </linearGradient>
    </defs>
</svg>
