<svg width="179" height="109" viewBox="0 0 179 109" fill="none" xmlns="http://www.w3.org/2000/svg">
    <path opacity="0.3" d="M106.953 41.9463C102.853 34.5463 95.1528 29.7462 86.7528 29.3462C73.0528 28.5462 61.3522 39.0465 60.6522 52.6465C59.8522 66.3465 70.353 78.0466 83.953 78.7466L152.753 78.5464C166.453 79.3464 178.153 68.8466 178.953 55.2466C179.753 41.5466 169.252 29.8464 155.652 29.0464C153.352 28.9464 151.052 29.1465 148.852 29.6465C149.052 13.9465 136.853 0.946398 121.253 0.0463977C105.153 -0.853602 91.2524 11.4465 90.3524 27.6465L90.2528 29.6465" fill="#E8E8F2"/>
    <path d="M32.15 108.546C32.05 108.546 31.9498 108.546 31.9498 108.546C13.3498 107.446 -0.950591 91.4467 0.0494092 72.8467C0.549409 63.8467 4.55019 55.5464 11.3502 49.5464C18.0502 43.5464 26.8502 40.4464 35.8502 41.0464C35.9502 41.0464 35.9494 41.0464 36.0494 41.0464C38.1494 20.3464 56.3496 4.64668 77.2496 5.84668C96.6496 6.94668 112.049 21.9467 114.049 40.8467C115.649 40.7467 117.15 40.7466 118.75 40.7466C137.35 41.8466 151.65 57.8468 150.65 76.4468C149.55 95.0468 133.549 109.347 115.049 108.347L32.15 108.546ZM33.7496 48.9468C27.3496 48.9468 21.3494 51.2464 16.5494 55.5464C11.3494 60.1464 8.3498 66.4467 7.9498 73.3467C7.1498 87.5467 18.05 99.7465 32.15 100.646L114.95 100.447C115.05 100.447 115.15 100.447 115.15 100.447C129.35 101.247 141.65 90.3465 142.45 76.1465C143.25 61.9465 132.35 49.6467 118.15 48.8467C115.75 48.7467 113.349 48.9468 111.049 49.4468C109.849 49.7468 108.65 49.4465 107.65 48.6465C106.65 47.8465 106.15 46.7468 106.15 45.4468C106.35 28.6468 93.45 14.8467 76.65 13.8467C59.75 12.9467 45.1496 25.6468 43.7496 42.4468C51.9496 44.9468 58.9502 50.5466 63.3502 58.2466C64.4502 60.1466 63.7502 62.6465 61.8502 63.6465C59.9502 64.7465 57.4498 64.0465 56.4498 62.1465C52.1498 54.4465 44.2502 49.4468 35.3502 48.9468C34.7502 48.9468 34.2496 48.9468 33.7496 48.9468Z" fill="white"/>
</svg>
