<svg width="142" height="112" viewBox="0 0 142 112" fill="none" xmlns="http://www.w3.org/2000/svg">
    <path d="M84.7487 111.188C80.8487 111.188 76.9485 110.088 73.5485 107.888C69.3485 105.188 64.0489 105.188 59.9489 107.888C53.1489 112.288 44.3491 112.288 37.6491 107.888C33.5491 105.188 28.1485 105.188 24.0485 107.888C22.1485 109.088 19.7485 108.588 18.5485 106.688C17.3485 104.788 17.8487 102.388 19.7487 101.188C26.5487 96.7877 35.2485 96.7877 42.0485 101.188C46.1485 103.888 51.5491 103.888 55.6491 101.188C62.4491 96.7877 71.2489 96.7877 77.9489 101.188C82.1489 103.888 87.4485 103.888 91.5485 101.188C93.4485 99.9877 95.8485 100.488 97.0485 102.388C98.2485 104.288 97.7483 106.688 95.8483 107.888C92.5483 110.088 88.6487 111.188 84.7487 111.188Z" fill="white"/>
    <path d="M120.649 83.6874C116.749 83.6874 112.849 82.5876 109.449 80.3876C105.249 77.6876 99.9483 77.6876 95.8483 80.3876C95.8483 80.3876 95.7487 80.3872 95.7487 80.4872C88.9487 84.8872 80.2485 84.8872 73.5485 80.4872C69.4485 77.7872 64.0489 77.7872 59.9489 80.4872C58.1489 81.6872 55.6489 81.1875 54.4489 79.2875C53.2489 77.3875 53.7491 74.9875 55.6491 73.7875C62.4491 69.3875 71.1489 69.3875 77.9489 73.7875C82.0489 76.4875 87.4485 76.4875 91.5485 73.7875C91.5485 73.7875 91.6491 73.7874 91.6491 73.6874C98.4491 69.2874 107.148 69.3874 113.848 73.6874C118.048 76.3874 123.349 76.3874 127.449 73.6874C129.349 72.4874 131.749 72.9876 132.949 74.8876C134.149 76.7876 133.649 79.1876 131.749 80.3876C128.349 82.5876 124.449 83.6874 120.649 83.6874Z" fill="white"/>
    <path d="M49.0488 62.1877C45.1488 62.1877 41.2486 61.0879 37.8486 58.8879C33.6486 56.1879 28.349 56.1879 24.249 58.8879C24.249 58.8879 24.2494 58.8879 24.1494 58.8879C17.3494 63.2879 8.6486 63.2879 1.8486 58.8879C-0.0514041 57.6879 -0.550623 55.1879 0.649377 53.3879C1.84938 51.4879 4.34938 50.9877 6.14938 52.1877C10.2494 54.8877 15.649 54.8877 19.749 52.1877C19.749 52.1877 19.7486 52.1877 19.8486 52.1877C26.6486 47.7877 35.3494 47.7877 42.1494 52.1877C46.3494 54.8877 51.649 54.8877 55.749 52.1877C57.649 50.9877 60.049 51.4879 61.249 53.3879C62.449 55.2879 61.9488 57.6879 60.0488 58.8879C56.8488 61.0879 52.9488 62.1877 49.0488 62.1877Z" fill="white"/>
    <path d="M103.649 37.6874C99.7491 37.6874 95.8489 36.5876 92.4489 34.3876C88.2489 31.6876 82.9483 31.6876 78.8483 34.3876C78.8483 34.3876 78.7487 34.3872 78.7487 34.4872C71.9487 38.8872 63.2485 38.8872 56.5485 34.4872C52.4485 31.7872 47.0489 31.7872 42.9489 34.4872C41.1489 35.6872 38.6489 35.1875 37.4489 33.2875C36.2489 31.3875 36.7491 28.9875 38.6491 27.7875C45.4491 23.3875 54.1489 23.3875 60.9489 27.7875C65.0489 30.4875 70.4485 30.4875 74.5485 27.7875C74.5485 27.7875 74.6491 27.7874 74.6491 27.6874C81.4491 23.2874 90.1483 23.3874 96.8483 27.6874C101.048 30.3874 106.349 30.3874 110.449 27.6874C112.349 26.4874 114.749 26.9876 115.949 28.8876C117.149 30.7876 116.649 33.1876 114.749 34.3876C111.349 36.5876 107.449 37.6874 103.649 37.6874Z" fill="white"/>
    <path d="M16.4492 11.5872C16.1492 11.5872 15.9494 11.5871 15.6494 11.4871C15.3494 11.3871 15.1486 11.3874 14.8486 11.2874C14.6486 11.1874 14.3494 11.0875 14.1494 10.8875C13.9494 10.7875 13.7488 10.5875 13.5488 10.3875C13.3488 10.1875 13.2488 9.9874 13.0488 9.7874C12.9488 9.5874 12.7494 9.28721 12.6494 9.08721C12.5494 8.88721 12.4492 8.5874 12.4492 8.2874C12.4492 7.9874 12.3486 7.78711 12.3486 7.48711C12.3486 7.18711 12.3492 6.9873 12.4492 6.6873C12.4492 6.4873 12.5494 6.18711 12.6494 5.98711C12.7494 5.78711 12.8488 5.4874 13.0488 5.2874C13.2488 5.0874 13.3488 4.8873 13.5488 4.6873C13.7488 4.4873 13.9494 4.2873 14.1494 4.1873C14.3494 4.0873 14.5486 3.8874 14.8486 3.7874C15.0486 3.6874 15.3494 3.58721 15.6494 3.58721C16.1494 3.48721 16.649 3.48721 17.249 3.58721C17.449 3.68721 17.7488 3.6874 18.0488 3.7874C18.2488 3.8874 18.549 3.9873 18.749 4.1873C18.949 4.2873 19.1486 4.4873 19.3486 4.6873C19.5486 4.8873 19.6486 5.0874 19.8486 5.2874C19.9486 5.4874 20.149 5.68711 20.249 5.98711C20.349 6.18711 20.4492 6.4873 20.4492 6.6873C20.4492 6.9873 20.5488 7.18711 20.5488 7.48711C20.5488 8.48711 20.1486 9.5874 19.3486 10.2874C19.1486 10.4874 18.949 10.6874 18.749 10.7874C18.549 10.9874 18.2488 11.0873 18.0488 11.1873C17.8488 11.2873 17.549 11.3875 17.249 11.3875C16.949 11.5875 16.6492 11.5872 16.4492 11.5872Z" fill="white"/>
    <path d="M11.749 87.6873C11.449 87.6873 11.2492 87.6872 10.9492 87.5872C10.7492 87.5872 10.4494 87.4875 10.1494 87.3875C9.94941 87.2875 9.64922 87.1871 9.44922 86.9871C9.24922 86.7871 9.04863 86.6871 8.84863 86.4871C8.64863 86.2871 8.44863 86.0875 8.34863 85.8875C8.14863 85.6875 8.04922 85.3873 7.94922 85.1873C7.84922 84.9873 7.74902 84.6875 7.74902 84.3875C7.64902 84.0875 7.64941 83.8872 7.64941 83.5872C7.64941 83.2872 7.64902 83.0874 7.74902 82.7874C7.74902 82.4874 7.84922 82.2871 7.94922 81.9871C8.04922 81.7871 8.14863 81.4874 8.34863 81.2874C8.44863 81.0874 8.64863 80.8873 8.84863 80.6873C9.04863 80.4873 9.24922 80.2873 9.44922 80.1873C9.64922 80.0873 9.94941 79.8874 10.1494 79.7874C10.3494 79.6874 10.6492 79.5872 10.9492 79.5872C11.4492 79.4872 11.9488 79.4872 12.5488 79.5872C12.7488 79.5872 13.049 79.6874 13.249 79.7874C13.449 79.8874 13.7492 79.9873 13.9492 80.1873C14.1492 80.2873 14.3488 80.4873 14.5488 80.6873C14.7488 80.8873 14.8488 81.0874 15.0488 81.2874C15.1488 81.4874 15.3492 81.7871 15.4492 81.9871C15.5492 82.1871 15.6494 82.4874 15.6494 82.7874C15.6494 83.0874 15.749 83.2872 15.749 83.5872C15.749 83.8872 15.7494 84.0875 15.6494 84.3875C15.5494 84.6875 15.5492 84.8873 15.4492 85.1873C15.3492 85.3873 15.2488 85.6875 15.0488 85.8875C14.8488 86.0875 14.7488 86.2871 14.5488 86.4871C14.3488 86.6871 14.1492 86.7871 13.9492 86.9871C13.7492 87.0871 13.549 87.2875 13.249 87.3875C13.049 87.4875 12.7488 87.5872 12.5488 87.5872C12.2488 87.6872 12.049 87.6873 11.749 87.6873Z" fill="white"/>
    <path d="M137.249 105.987C136.249 105.987 135.149 105.587 134.449 104.787C134.249 104.587 134.049 104.387 133.949 104.187C133.849 103.987 133.649 103.687 133.549 103.487C133.449 103.287 133.349 102.987 133.349 102.787C133.349 102.487 133.249 102.287 133.249 101.987C133.249 101.687 133.249 101.487 133.349 101.187C133.349 100.987 133.449 100.687 133.549 100.387C133.649 100.187 133.749 99.8873 133.949 99.6873C134.049 99.4873 134.249 99.2872 134.449 99.0872C135.349 98.1872 136.749 97.6871 138.049 97.9871C138.249 97.9871 138.549 98.0873 138.749 98.1873C138.949 98.2873 139.249 98.3872 139.449 98.5872C139.649 98.6872 139.849 98.8872 140.049 99.0872C140.249 99.2872 140.349 99.4873 140.549 99.6873C140.649 99.8873 140.849 100.187 140.949 100.387C141.049 100.587 141.149 100.887 141.149 101.187C141.149 101.487 141.249 101.687 141.249 101.987C141.249 102.287 141.249 102.487 141.149 102.787C141.049 102.987 141.049 103.287 140.949 103.487C140.849 103.687 140.749 103.987 140.549 104.187C140.349 104.387 140.249 104.587 140.049 104.787C139.849 104.987 139.649 105.187 139.449 105.287C139.249 105.387 139.049 105.587 138.749 105.687C138.549 105.787 138.249 105.887 138.049 105.887C137.749 105.988 137.449 105.987 137.249 105.987Z" fill="white"/>
    <path d="M121.249 7.98711C120.949 7.98711 120.749 7.9875 120.449 7.8875C120.249 7.7875 119.949 7.7873 119.649 7.6873C119.449 7.5873 119.149 7.4874 118.949 7.2874C118.749 7.0874 118.549 6.9874 118.349 6.7874C118.149 6.5874 117.949 6.3873 117.849 6.1873C117.749 5.9873 117.549 5.68711 117.449 5.48711C117.349 5.28711 117.249 4.9874 117.249 4.7874C117.249 4.4874 117.149 4.28711 117.149 3.98711C117.149 2.98711 117.549 1.8873 118.349 1.1873C118.549 0.987304 118.749 0.787304 118.949 0.687304C119.149 0.487304 119.349 0.387402 119.649 0.287402C119.849 0.187402 120.149 0.0872068 120.449 0.0872068C121.749 -0.212793 123.149 0.287304 124.049 1.1873C124.849 1.8873 125.249 2.98711 125.249 3.98711C125.249 5.08711 124.849 6.0874 124.049 6.7874C123.249 7.5874 122.249 7.98711 121.249 7.98711Z" fill="white"/>
</svg>
