<svg width="125" height="126" viewBox="0 0 125 126" fill="none" xmlns="http://www.w3.org/2000/svg">
    <path d="M121 66.5874C119.9 66.5874 118.899 66.1877 118.199 65.3877C117.999 65.1877 117.799 64.9876 117.699 64.7876C117.599 64.5876 117.4 64.3874 117.3 64.0874C117.2 63.7874 117.1 63.5876 117.1 63.2876C117 63.0876 117 62.7873 117 62.4873C117 61.4873 117.399 60.3875 118.199 59.6875C118.899 58.9875 120 58.4873 121 58.4873C122 58.4873 123.1 58.8875 123.8 59.6875C124.5 60.4875 125 61.4873 125 62.4873C125 62.7873 124.999 62.9876 124.899 63.2876C124.899 63.5876 124.799 63.7874 124.699 64.0874C124.599 64.2874 124.5 64.5876 124.3 64.7876C124.2 64.9876 124 65.1877 123.8 65.3877C123.6 65.5877 123.399 65.6877 123.199 65.8877C122.999 65.9877 122.7 66.1876 122.5 66.2876C122.3 66.3876 121.999 66.4873 121.699 66.4873C121.499 66.5873 121.2 66.5874 121 66.5874Z" fill="#FFC44C"/>
    <path d="M62.5 8.1873C61.4 8.1873 60.3992 7.78711 59.6992 6.98711C59.4992 6.78711 59.3992 6.5875 59.1992 6.3875C59.0992 6.1875 58.8998 5.8873 58.7998 5.6873C58.6998 5.4873 58.5996 5.1875 58.5996 4.8875C58.5996 4.5875 58.5 4.38721 58.5 4.08721C58.5 3.78721 58.4996 3.5874 58.5996 3.2874C58.6996 2.9874 58.6998 2.78711 58.7998 2.48711C58.8998 2.28711 58.9992 1.9874 59.1992 1.7874C59.3992 1.5874 59.4992 1.3873 59.6992 1.1873C60.5992 0.287304 61.9998 -0.212793 63.2998 0.0872068C63.4998 0.0872068 63.7996 0.187402 64.0996 0.287402C64.2996 0.387402 64.5998 0.487304 64.7998 0.687304C64.9998 0.787304 65.1994 0.987304 65.3994 1.1873C65.5994 1.3873 65.7994 1.5874 65.8994 1.7874C66.0994 1.9874 66.1998 2.18711 66.2998 2.48711C66.3998 2.68711 66.5 2.9874 66.5 3.2874C66.6 3.5874 66.5996 3.78721 66.5996 4.08721C66.5996 4.38721 66.6 4.5875 66.5 4.8875C66.5 5.1875 66.3998 5.3873 66.2998 5.6873C66.1998 5.8873 66.0994 6.1875 65.8994 6.3875C65.7994 6.5875 65.5994 6.78711 65.3994 6.98711C65.1994 7.18711 64.9998 7.28711 64.7998 7.48711C64.5998 7.68711 64.2996 7.7875 64.0996 7.8875C63.8996 7.9875 63.5998 8.08721 63.2998 8.08721C63.0998 8.18721 62.8 8.1873 62.5 8.1873Z" fill="#FFC44C"/>
    <path d="M62.5 125.087C61.4 125.087 60.3992 124.688 59.6992 123.887C58.8992 123.188 58.5 122.087 58.5 121.087C58.5 120.787 58.4996 120.587 58.5996 120.287C58.5996 120.087 58.6998 119.787 58.7998 119.487C58.8998 119.287 58.9992 118.987 59.1992 118.787C59.3992 118.587 59.4992 118.387 59.6992 118.187C60.5992 117.287 61.9998 116.787 63.2998 117.087C63.4998 117.187 63.7996 117.187 64.0996 117.287C64.2996 117.387 64.5998 117.487 64.7998 117.687C64.9998 117.787 65.1994 117.987 65.3994 118.187C65.5994 118.387 65.7994 118.587 65.8994 118.787C66.0994 118.987 66.1998 119.287 66.2998 119.487C66.3998 119.687 66.5 119.987 66.5 120.287C66.6 120.587 66.5996 120.787 66.5996 121.087C66.5996 122.187 66.1994 123.188 65.3994 123.887C65.1994 124.087 64.9998 124.287 64.7998 124.387C64.5998 124.487 64.2996 124.687 64.0996 124.787C63.8996 124.887 63.5998 124.987 63.2998 124.987C63.0998 124.987 62.8 125.087 62.5 125.087Z" fill="#FFC44C"/>
    <path d="M4.09961 66.5872C3.79961 66.5872 3.5998 66.5871 3.2998 66.4871C3.0998 66.4871 2.8 66.3874 2.5 66.2874C2.3 66.1874 1.9998 66.0875 1.7998 65.8875C1.5998 65.6875 1.39922 65.5875 1.19922 65.3875C0.999219 65.1875 0.799219 64.9874 0.699219 64.7874C0.499219 64.5874 0.399805 64.3872 0.299805 64.0872C0.199805 63.8872 0.0996094 63.5874 0.0996094 63.2874C-0.000390604 63.0874 2.34741e-08 62.7871 2.34741e-08 62.4871C2.34741e-08 62.1871 -0.000390604 61.9873 0.0996094 61.6873C0.0996094 61.4873 0.199805 61.1875 0.299805 60.8875C0.399805 60.6875 0.499219 60.3873 0.699219 60.1873C0.799219 59.9873 0.999219 59.7872 1.19922 59.5872C1.39922 59.3872 1.5998 59.2872 1.7998 59.0872C1.9998 58.9872 2.3 58.7873 2.5 58.6873C2.7 58.5873 2.9998 58.4871 3.2998 58.4871C4.5998 58.1871 5.99941 58.6872 6.89941 59.5872C7.09941 59.7872 7.19941 59.9873 7.39941 60.1873C7.49941 60.3873 7.6998 60.6875 7.7998 60.8875C7.8998 61.0875 8 61.3873 8 61.6873C8.1 61.9873 8.09961 62.1871 8.09961 62.4871C8.09961 62.7871 8.1 62.9874 8 63.2874C8 63.5874 7.8998 63.7872 7.7998 64.0872C7.6998 64.2872 7.59941 64.5874 7.39941 64.7874C7.19941 64.9874 7.09941 65.1875 6.89941 65.3875C6.69941 65.5875 6.4998 65.6875 6.2998 65.8875C6.0998 65.9875 5.89961 66.1874 5.59961 66.2874C5.39961 66.3874 5.09941 66.4871 4.89941 66.4871C4.59941 66.5871 4.39961 66.5872 4.09961 66.5872Z" fill="#FFC44C"/>
    <path d="M103.899 25.2874C103.599 25.2874 103.4 25.2873 103.1 25.1873C102.9 25.0873 102.6 25.0871 102.3 24.9871C102.1 24.8871 101.8 24.7872 101.6 24.5872C101.4 24.4872 101.2 24.2872 101 24.0872C100.8 23.8872 100.7 23.6871 100.5 23.4871C100.4 23.2871 100.2 23.0874 100.1 22.7874C99.9996 22.5874 99.8994 22.2872 99.8994 22.0872C99.7994 21.7872 99.7998 21.5874 99.7998 21.2874C99.7998 20.9874 99.7994 20.7871 99.8994 20.4871C99.8994 20.2871 99.9996 19.9873 100.1 19.6873C100.2 19.4873 100.3 19.1871 100.5 18.9871C100.6 18.7871 100.8 18.5875 101 18.3875C101.2 18.1875 101.4 17.9875 101.6 17.8875C101.8 17.6875 102.1 17.5871 102.3 17.4871C102.5 17.3871 102.8 17.2874 103.1 17.2874C103.6 17.1874 104.099 17.1874 104.699 17.2874C104.899 17.3874 105.2 17.3871 105.5 17.4871C105.7 17.5871 105.999 17.6875 106.199 17.8875C106.399 17.9875 106.6 18.1875 106.8 18.3875C107 18.5875 107.2 18.7871 107.3 18.9871C107.4 19.1871 107.599 19.4873 107.699 19.6873C107.799 19.8873 107.899 20.1871 107.899 20.4871C107.999 20.7871 108 20.9874 108 21.2874C108 21.5874 107.999 21.7872 107.899 22.0872C107.899 22.2872 107.799 22.5874 107.699 22.7874C107.599 22.9874 107.5 23.2871 107.3 23.4871C107.1 23.6871 107 23.8872 106.8 24.0872C106.6 24.2872 106.399 24.4872 106.199 24.5872C105.999 24.6872 105.8 24.8871 105.5 24.9871C105.3 25.0871 105 25.1873 104.8 25.1873C104.4 25.2873 104.099 25.2874 103.899 25.2874Z" fill="#FFC44C"/>
    <path d="M21.1992 107.987C20.0992 107.987 19.0994 107.587 18.3994 106.787C18.1994 106.587 17.9994 106.387 17.8994 106.187C17.7994 105.987 17.6 105.687 17.5 105.487C17.4 105.287 17.2998 104.987 17.2998 104.687C17.1998 104.387 17.1992 104.188 17.1992 103.888C17.1992 103.588 17.1998 103.387 17.2998 103.087C17.2998 102.787 17.4 102.587 17.5 102.287C17.6 101.987 17.6994 101.787 17.8994 101.587C17.9994 101.387 18.1994 101.187 18.3994 100.987C19.2994 100.087 20.7 99.5875 22 99.8875C22.3 99.8875 22.4998 99.9873 22.7998 100.087C22.9998 100.187 23.3 100.287 23.5 100.487C23.7 100.587 23.8996 100.787 24.0996 100.987C24.7996 101.787 25.2998 102.787 25.2998 103.787C25.2998 104.787 24.8996 105.887 24.0996 106.587C23.8996 106.787 23.7 106.887 23.5 107.087C23.3 107.187 22.9998 107.387 22.7998 107.487C22.5998 107.587 22.3 107.687 22 107.687C21.7 107.887 21.4992 107.987 21.1992 107.987Z" fill="#FFC44C"/>
    <path d="M103.899 107.987C103.599 107.987 103.4 107.988 103.1 107.887C102.9 107.887 102.6 107.787 102.3 107.687C102.1 107.587 101.8 107.487 101.6 107.287C101.4 107.187 101.2 106.987 101 106.787C100.8 106.587 100.7 106.387 100.5 106.187C100.4 105.987 100.2 105.687 100.1 105.487C99.9996 105.287 99.8994 104.987 99.8994 104.687C99.7994 104.387 99.7998 104.188 99.7998 103.887C99.7998 103.587 99.7994 103.387 99.8994 103.087C99.8994 102.787 99.9996 102.587 100.1 102.287C100.2 102.087 100.3 101.787 100.5 101.587C100.6 101.387 100.8 101.187 101 100.987C101.2 100.787 101.4 100.587 101.6 100.487C101.8 100.387 102.1 100.187 102.3 100.087C102.5 99.9872 102.8 99.8875 103.1 99.8875C103.6 99.7875 104.099 99.7875 104.699 99.8875C104.899 99.8875 105.2 99.9872 105.5 100.087C105.7 100.187 105.999 100.287 106.199 100.487C106.399 100.587 106.6 100.787 106.8 100.987C107 101.187 107.2 101.387 107.3 101.587C107.4 101.787 107.599 101.987 107.699 102.287C107.799 102.487 107.899 102.787 107.899 103.087C107.999 103.387 108 103.587 108 103.887C108 104.188 107.999 104.387 107.899 104.687C107.899 104.987 107.799 105.187 107.699 105.487C107.599 105.687 107.5 105.987 107.3 106.187C107.1 106.387 107 106.587 106.8 106.787C105.9 107.487 104.899 107.987 103.899 107.987Z" fill="#FFC44C"/>
    <path d="M21.1992 25.2874C20.8992 25.2874 20.6994 25.2873 20.3994 25.1873C20.0994 25.0873 19.8996 25.0871 19.5996 24.9871C19.3996 24.8871 19.0994 24.7872 18.8994 24.5872C18.6994 24.4872 18.4998 24.2872 18.2998 24.0872C18.0998 23.8872 17.8998 23.6871 17.7998 23.4871C17.6998 23.2871 17.4994 23.0874 17.3994 22.7874C17.2994 22.5874 17.1992 22.2872 17.1992 22.0872C17.0992 21.7872 17.0996 21.5874 17.0996 21.2874C17.0996 20.9874 17.0992 20.7871 17.1992 20.4871C17.1992 20.2871 17.2994 19.9873 17.3994 19.6873C17.4994 19.4873 17.5998 19.1871 17.7998 18.9871C17.8998 18.7871 18.0998 18.5875 18.2998 18.3875C18.4998 18.1875 18.6994 17.9875 18.8994 17.8875C19.0994 17.6875 19.3996 17.5871 19.5996 17.4871C19.7996 17.3871 20.0994 17.2874 20.3994 17.2874C20.8994 17.1874 21.4 17.1874 22 17.2874C22.3 17.3874 22.4998 17.3871 22.7998 17.4871C22.9998 17.5871 23.3 17.6875 23.5 17.8875C23.7 17.9875 23.8996 18.1875 24.0996 18.3875C24.2996 18.5875 24.3996 18.7871 24.5996 18.9871C24.6996 19.1871 24.9 19.4873 25 19.6873C25.1 19.8873 25.1992 20.1871 25.1992 20.4871C25.1992 20.7871 25.2998 20.9874 25.2998 21.2874C25.2998 21.5874 25.2992 21.7872 25.1992 22.0872C25.1992 22.2872 25.1 22.5874 25 22.7874C24.9 22.9874 24.7996 23.2871 24.5996 23.4871C24.4996 23.6871 24.2996 23.8872 24.0996 24.0872C23.2996 24.8872 22.2992 25.2874 21.1992 25.2874Z" fill="#FFC44C"/>
    <path d="M121 66.5874C119.9 66.5874 118.899 66.1877 118.199 65.3877C117.999 65.1877 117.799 64.9876 117.699 64.7876C117.599 64.5876 117.4 64.3874 117.3 64.0874C117.2 63.7874 117.1 63.5876 117.1 63.2876C117 63.0876 117 62.7873 117 62.4873C117 61.4873 117.399 60.3875 118.199 59.6875C118.899 58.9875 120 58.4873 121 58.4873C122 58.4873 123.1 58.8875 123.8 59.6875C124.5 60.4875 125 61.4873 125 62.4873C125 62.7873 124.999 62.9876 124.899 63.2876C124.899 63.5876 124.799 63.7874 124.699 64.0874C124.599 64.2874 124.5 64.5876 124.3 64.7876C124.2 64.9876 124 65.1877 123.8 65.3877C123.6 65.5877 123.399 65.6877 123.199 65.8877C122.999 65.9877 122.7 66.1876 122.5 66.2876C122.3 66.3876 121.999 66.4873 121.699 66.4873C121.499 66.5873 121.2 66.5874 121 66.5874Z" fill="#FFC44C"/>
    <path d="M62.5 8.1873C61.4 8.1873 60.3992 7.78711 59.6992 6.98711C59.4992 6.78711 59.3992 6.5875 59.1992 6.3875C59.0992 6.1875 58.8998 5.8873 58.7998 5.6873C58.6998 5.4873 58.5996 5.1875 58.5996 4.8875C58.5996 4.5875 58.5 4.38721 58.5 4.08721C58.5 3.78721 58.4996 3.5874 58.5996 3.2874C58.6996 2.9874 58.6998 2.78711 58.7998 2.48711C58.8998 2.28711 58.9992 1.9874 59.1992 1.7874C59.3992 1.5874 59.4992 1.3873 59.6992 1.1873C60.5992 0.287304 61.9998 -0.212793 63.2998 0.0872068C63.4998 0.0872068 63.7996 0.187402 64.0996 0.287402C64.2996 0.387402 64.5998 0.487304 64.7998 0.687304C64.9998 0.787304 65.1994 0.987304 65.3994 1.1873C65.5994 1.3873 65.7994 1.5874 65.8994 1.7874C66.0994 1.9874 66.1998 2.18711 66.2998 2.48711C66.3998 2.68711 66.5 2.9874 66.5 3.2874C66.6 3.5874 66.5996 3.78721 66.5996 4.08721C66.5996 4.38721 66.6 4.5875 66.5 4.8875C66.5 5.1875 66.3998 5.3873 66.2998 5.6873C66.1998 5.8873 66.0994 6.1875 65.8994 6.3875C65.7994 6.5875 65.5994 6.78711 65.3994 6.98711C65.1994 7.18711 64.9998 7.28711 64.7998 7.48711C64.5998 7.68711 64.2996 7.7875 64.0996 7.8875C63.8996 7.9875 63.5998 8.08721 63.2998 8.08721C63.0998 8.18721 62.8 8.1873 62.5 8.1873Z" fill="#FFC44C"/>
    <path d="M62.5 125.087C61.4 125.087 60.3992 124.688 59.6992 123.887C58.8992 123.188 58.5 122.087 58.5 121.087C58.5 120.787 58.4996 120.587 58.5996 120.287C58.5996 120.087 58.6998 119.787 58.7998 119.487C58.8998 119.287 58.9992 118.987 59.1992 118.787C59.3992 118.587 59.4992 118.387 59.6992 118.187C60.5992 117.287 61.9998 116.787 63.2998 117.087C63.4998 117.187 63.7996 117.187 64.0996 117.287C64.2996 117.387 64.5998 117.487 64.7998 117.687C64.9998 117.787 65.1994 117.987 65.3994 118.187C65.5994 118.387 65.7994 118.587 65.8994 118.787C66.0994 118.987 66.1998 119.287 66.2998 119.487C66.3998 119.687 66.5 119.987 66.5 120.287C66.6 120.587 66.5996 120.787 66.5996 121.087C66.5996 122.187 66.1994 123.188 65.3994 123.887C65.1994 124.087 64.9998 124.287 64.7998 124.387C64.5998 124.487 64.2996 124.687 64.0996 124.787C63.8996 124.887 63.5998 124.987 63.2998 124.987C63.0998 124.987 62.8 125.087 62.5 125.087Z" fill="#FFC44C"/>
    <path d="M4.09961 66.5872C3.79961 66.5872 3.5998 66.5871 3.2998 66.4871C3.0998 66.4871 2.8 66.3874 2.5 66.2874C2.3 66.1874 1.9998 66.0875 1.7998 65.8875C1.5998 65.6875 1.39922 65.5875 1.19922 65.3875C0.999219 65.1875 0.799219 64.9874 0.699219 64.7874C0.499219 64.5874 0.399805 64.3872 0.299805 64.0872C0.199805 63.8872 0.0996094 63.5874 0.0996094 63.2874C-0.000390604 63.0874 2.34741e-08 62.7871 2.34741e-08 62.4871C2.34741e-08 62.1871 -0.000390604 61.9873 0.0996094 61.6873C0.0996094 61.4873 0.199805 61.1875 0.299805 60.8875C0.399805 60.6875 0.499219 60.3873 0.699219 60.1873C0.799219 59.9873 0.999219 59.7872 1.19922 59.5872C1.39922 59.3872 1.5998 59.2872 1.7998 59.0872C1.9998 58.9872 2.3 58.7873 2.5 58.6873C2.7 58.5873 2.9998 58.4871 3.2998 58.4871C4.5998 58.1871 5.99941 58.6872 6.89941 59.5872C7.09941 59.7872 7.19941 59.9873 7.39941 60.1873C7.49941 60.3873 7.6998 60.6875 7.7998 60.8875C7.8998 61.0875 8 61.3873 8 61.6873C8.1 61.9873 8.09961 62.1871 8.09961 62.4871C8.09961 62.7871 8.1 62.9874 8 63.2874C8 63.5874 7.8998 63.7872 7.7998 64.0872C7.6998 64.2872 7.59941 64.5874 7.39941 64.7874C7.19941 64.9874 7.09941 65.1875 6.89941 65.3875C6.69941 65.5875 6.4998 65.6875 6.2998 65.8875C6.0998 65.9875 5.89961 66.1874 5.59961 66.2874C5.39961 66.3874 5.09941 66.4871 4.89941 66.4871C4.59941 66.5871 4.39961 66.5872 4.09961 66.5872Z" fill="#FFC44C"/>
    <path d="M103.899 25.2874C103.599 25.2874 103.4 25.2873 103.1 25.1873C102.9 25.0873 102.6 25.0871 102.3 24.9871C102.1 24.8871 101.8 24.7872 101.6 24.5872C101.4 24.4872 101.2 24.2872 101 24.0872C100.8 23.8872 100.7 23.6871 100.5 23.4871C100.4 23.2871 100.2 23.0874 100.1 22.7874C99.9996 22.5874 99.8994 22.2872 99.8994 22.0872C99.7994 21.7872 99.7998 21.5874 99.7998 21.2874C99.7998 20.9874 99.7994 20.7871 99.8994 20.4871C99.8994 20.2871 99.9996 19.9873 100.1 19.6873C100.2 19.4873 100.3 19.1871 100.5 18.9871C100.6 18.7871 100.8 18.5875 101 18.3875C101.2 18.1875 101.4 17.9875 101.6 17.8875C101.8 17.6875 102.1 17.5871 102.3 17.4871C102.5 17.3871 102.8 17.2874 103.1 17.2874C103.6 17.1874 104.099 17.1874 104.699 17.2874C104.899 17.3874 105.2 17.3871 105.5 17.4871C105.7 17.5871 105.999 17.6875 106.199 17.8875C106.399 17.9875 106.6 18.1875 106.8 18.3875C107 18.5875 107.2 18.7871 107.3 18.9871C107.4 19.1871 107.599 19.4873 107.699 19.6873C107.799 19.8873 107.899 20.1871 107.899 20.4871C107.999 20.7871 108 20.9874 108 21.2874C108 21.5874 107.999 21.7872 107.899 22.0872C107.899 22.2872 107.799 22.5874 107.699 22.7874C107.599 22.9874 107.5 23.2871 107.3 23.4871C107.1 23.6871 107 23.8872 106.8 24.0872C106.6 24.2872 106.399 24.4872 106.199 24.5872C105.999 24.6872 105.8 24.8871 105.5 24.9871C105.3 25.0871 105 25.1873 104.8 25.1873C104.4 25.2873 104.099 25.2874 103.899 25.2874Z" fill="#FFC44C"/>
    <path d="M21.1992 107.987C20.0992 107.987 19.0994 107.587 18.3994 106.787C18.1994 106.587 17.9994 106.387 17.8994 106.187C17.7994 105.987 17.6 105.687 17.5 105.487C17.4 105.287 17.2998 104.987 17.2998 104.687C17.1998 104.387 17.1992 104.188 17.1992 103.888C17.1992 103.588 17.1998 103.387 17.2998 103.087C17.2998 102.787 17.4 102.587 17.5 102.287C17.6 101.987 17.6994 101.787 17.8994 101.587C17.9994 101.387 18.1994 101.187 18.3994 100.987C19.2994 100.087 20.7 99.5875 22 99.8875C22.3 99.8875 22.4998 99.9873 22.7998 100.087C22.9998 100.187 23.3 100.287 23.5 100.487C23.7 100.587 23.8996 100.787 24.0996 100.987C24.7996 101.787 25.2998 102.787 25.2998 103.787C25.2998 104.787 24.8996 105.887 24.0996 106.587C23.8996 106.787 23.7 106.887 23.5 107.087C23.3 107.187 22.9998 107.387 22.7998 107.487C22.5998 107.587 22.3 107.687 22 107.687C21.7 107.887 21.4992 107.987 21.1992 107.987Z" fill="#FFC44C"/>
    <path d="M103.899 107.987C103.599 107.987 103.4 107.988 103.1 107.887C102.9 107.887 102.6 107.787 102.3 107.687C102.1 107.587 101.8 107.487 101.6 107.287C101.4 107.187 101.2 106.987 101 106.787C100.8 106.587 100.7 106.387 100.5 106.187C100.4 105.987 100.2 105.687 100.1 105.487C99.9996 105.287 99.8994 104.987 99.8994 104.687C99.7994 104.387 99.7998 104.188 99.7998 103.887C99.7998 103.587 99.7994 103.387 99.8994 103.087C99.8994 102.787 99.9996 102.587 100.1 102.287C100.2 102.087 100.3 101.787 100.5 101.587C100.6 101.387 100.8 101.187 101 100.987C101.2 100.787 101.4 100.587 101.6 100.487C101.8 100.387 102.1 100.187 102.3 100.087C102.5 99.9872 102.8 99.8875 103.1 99.8875C103.6 99.7875 104.099 99.7875 104.699 99.8875C104.899 99.8875 105.2 99.9872 105.5 100.087C105.7 100.187 105.999 100.287 106.199 100.487C106.399 100.587 106.6 100.787 106.8 100.987C107 101.187 107.2 101.387 107.3 101.587C107.4 101.787 107.599 101.987 107.699 102.287C107.799 102.487 107.899 102.787 107.899 103.087C107.999 103.387 108 103.587 108 103.887C108 104.188 107.999 104.387 107.899 104.687C107.899 104.987 107.799 105.187 107.699 105.487C107.599 105.687 107.5 105.987 107.3 106.187C107.1 106.387 107 106.587 106.8 106.787C105.9 107.487 104.899 107.987 103.899 107.987Z" fill="#FFC44C"/>
    <path d="M21.1992 25.2874C20.8992 25.2874 20.6994 25.2873 20.3994 25.1873C20.0994 25.0873 19.8996 25.0871 19.5996 24.9871C19.3996 24.8871 19.0994 24.7872 18.8994 24.5872C18.6994 24.4872 18.4998 24.2872 18.2998 24.0872C18.0998 23.8872 17.8998 23.6871 17.7998 23.4871C17.6998 23.2871 17.4994 23.0874 17.3994 22.7874C17.2994 22.5874 17.1992 22.2872 17.1992 22.0872C17.0992 21.7872 17.0996 21.5874 17.0996 21.2874C17.0996 20.9874 17.0992 20.7871 17.1992 20.4871C17.1992 20.2871 17.2994 19.9873 17.3994 19.6873C17.4994 19.4873 17.5998 19.1871 17.7998 18.9871C17.8998 18.7871 18.0998 18.5875 18.2998 18.3875C18.4998 18.1875 18.6994 17.9875 18.8994 17.8875C19.0994 17.6875 19.3996 17.5871 19.5996 17.4871C19.7996 17.3871 20.0994 17.2874 20.3994 17.2874C20.8994 17.1874 21.4 17.1874 22 17.2874C22.3 17.3874 22.4998 17.3871 22.7998 17.4871C22.9998 17.5871 23.3 17.6875 23.5 17.8875C23.7 17.9875 23.8996 18.1875 24.0996 18.3875C24.2996 18.5875 24.3996 18.7871 24.5996 18.9871C24.6996 19.1871 24.9 19.4873 25 19.6873C25.1 19.8873 25.1992 20.1871 25.1992 20.4871C25.1992 20.7871 25.2998 20.9874 25.2998 21.2874C25.2998 21.5874 25.2992 21.7872 25.1992 22.0872C25.1992 22.2872 25.1 22.5874 25 22.7874C24.9 22.9874 24.7996 23.2871 24.5996 23.4871C24.4996 23.6871 24.2996 23.8872 24.0996 24.0872C23.2996 24.8872 22.2992 25.2874 21.1992 25.2874Z" fill="#FFC44C"/>
    <path d="M62.0996 104.188C85.6822 104.188 104.8 85.3386 104.8 62.0874C104.8 38.8362 85.6822 19.9873 62.0996 19.9873C38.517 19.9873 19.3994 38.8362 19.3994 62.0874C19.3994 85.3386 38.517 104.188 62.0996 104.188Z" fill="url(#paint0_linear_0_6267)"/>
    <defs>
        <linearGradient id="paint0_linear_0_6267" x1="62.0919" y1="104.112" x2="62.0919" y2="19.8836" gradientUnits="userSpaceOnUse">
            <stop stop-color="#FFC14C"/>
            <stop offset="1" stop-color="#FFD04D"/>
        </linearGradient>
    </defs>
</svg>
