<svg width="171" height="123" viewBox="0 0 171 123" fill="none" xmlns="http://www.w3.org/2000/svg">
    <path d="M30.1006 8.1001C29.8006 8.1001 29.5998 8.1 29.2998 8C29.0998 8 28.8 7.8998 28.5 7.7998C28.3 7.6998 27.9998 7.5999 27.7998 7.3999C27.5998 7.1999 27.4002 7.0999 27.2002 6.8999C27.0002 6.6999 26.8002 6.4998 26.7002 6.2998C26.6002 6.0998 26.3998 5.8001 26.2998 5.6001C26.1998 5.4001 26.1006 5.0999 26.1006 4.8999C26.1006 4.5999 26 4.4001 26 4.1001C26 3.8001 26.0006 3.5998 26.1006 3.2998C26.1006 3.0998 26.1998 2.8 26.2998 2.5C26.3998 2.3 26.5002 1.9998 26.7002 1.7998C26.8002 1.5998 27.0002 1.39971 27.2002 1.19971C27.9002 0.399707 29 0 30 0C31 0 32.0998 0.399707 32.7998 1.19971C32.9998 1.39971 33.1998 1.5998 33.2998 1.7998C33.3998 1.9998 33.6002 2.3 33.7002 2.5C33.8002 2.7 33.9004 2.9998 33.9004 3.2998C33.9004 3.5998 34 3.8001 34 4.1001C34 4.4001 34.0004 4.5999 33.9004 4.8999C33.8004 5.0999 33.8002 5.4001 33.7002 5.6001C33.6002 5.8001 33.4998 6.0998 33.2998 6.2998C33.1998 6.4998 32.9998 6.6999 32.7998 6.8999C32.5998 7.0999 32.4002 7.1999 32.2002 7.3999C32.0002 7.4999 31.8 7.6998 31.5 7.7998C31.3 7.8998 30.9998 8 30.7998 8C30.5998 8.1 30.3006 8.1001 30.1006 8.1001Z" fill="#FFC44C"/>
    <path d="M4.10059 69.3997C3.80059 69.3997 3.5998 69.3996 3.2998 69.2996C3.0998 69.2996 2.8 69.1999 2.5 69.0999C2.3 68.9999 1.9998 68.8995 1.7998 68.6995C1.5998 68.5995 1.4002 68.3995 1.2002 68.1995C1.0002 67.9995 0.800195 67.7999 0.700195 67.5999C0.600195 67.3999 0.399805 67.0997 0.299805 66.8997C0.199805 66.6997 0.100586 66.3999 0.100586 66.0999C0.100586 65.7999 0 65.5996 0 65.2996C0 64.9996 0.000585936 64.7998 0.100586 64.4998C0.200586 64.1998 0.199805 63.9995 0.299805 63.6995C0.399805 63.4995 0.500195 63.1998 0.700195 62.9998C0.800195 62.7998 1.0002 62.5997 1.2002 62.3997C1.4002 62.1997 1.5998 61.9997 1.7998 61.8997C1.9998 61.7997 2.3 61.5998 2.5 61.4998C2.7 61.3998 2.9998 61.2996 3.2998 61.2996C3.7998 61.1996 4.40039 61.1996 4.90039 61.2996C5.10039 61.2996 5.40059 61.3998 5.60059 61.4998C5.80059 61.5998 6.0998 61.6997 6.2998 61.8997C6.4998 61.9997 6.70039 62.1997 6.90039 62.3997C7.10039 62.5997 7.20039 62.7998 7.40039 62.9998C7.50039 63.1998 7.6998 63.4995 7.7998 63.6995C7.8998 63.8995 8 64.1998 8 64.4998C8.1 64.7998 8.10059 64.9996 8.10059 65.2996C8.10059 65.5996 8.1 65.7999 8 66.0999C7.9 66.3999 7.8998 66.5997 7.7998 66.8997C7.6998 67.0997 7.60039 67.3999 7.40039 67.5999C7.20039 67.7999 7.10039 67.9995 6.90039 68.1995C6.70039 68.3995 6.4998 68.4995 6.2998 68.6995C6.0998 68.8995 5.90059 68.9999 5.60059 69.0999C5.40059 69.1999 5.10039 69.2996 4.90039 69.2996C4.60039 69.3996 4.30059 69.3997 4.10059 69.3997Z" fill="#FFC44C"/>
    <path d="M66.1006 8.50017C65.1006 8.50017 63.9998 8.09998 63.2998 7.29998C63.0998 7.09998 62.9998 6.89988 62.7998 6.69988C62.6998 6.49988 62.5004 6.20017 62.4004 6.00017C62.3004 5.80017 62.2002 5.49988 62.2002 5.19988C62.2002 4.89988 62.1006 4.70008 62.1006 4.40007C62.1006 4.10008 62.1002 3.90027 62.2002 3.60027C62.2002 3.30027 62.3004 3.09998 62.4004 2.79998C62.5004 2.59998 62.5998 2.30027 62.7998 2.10027C62.9998 1.90027 63.0998 1.70017 63.2998 1.50017C63.4998 1.30017 63.7004 1.10017 63.9004 1.00017C64.1004 0.900172 64.4006 0.70027 64.6006 0.60027C64.8006 0.50027 65.1004 0.400075 65.4004 0.400075C66.7004 0.200075 68.1 0.600173 69 1.50017C69.2 1.70017 69.3 1.90027 69.5 2.10027C69.6 2.30027 69.8004 2.59998 69.9004 2.79998C70.0004 2.99998 70.1006 3.30027 70.1006 3.60027C70.1006 3.80027 70.2002 4.10008 70.2002 4.40007C70.2002 4.70008 70.2006 4.89988 70.1006 5.19988C70.1006 5.39988 70.0004 5.70017 69.9004 6.00017C69.8004 6.20017 69.7 6.49988 69.5 6.69988C69.4 6.89988 69.2 7.09998 69 7.29998C68.2 7.99998 67.2006 8.50017 66.1006 8.50017Z" fill="#FFC44C"/>
    <path d="M4.40039 33.3999C3.30039 33.3999 2.30059 32.9997 1.60059 32.1997C1.40059 31.9997 1.20059 31.8001 1.10059 31.6001C1.00059 31.4001 0.800195 31.1999 0.700195 30.8999C0.600195 30.6999 0.5 30.3997 0.5 30.1997C0.4 29.8997 0.400391 29.6999 0.400391 29.3999C0.400391 28.2999 0.800586 27.3001 1.60059 26.6001C2.30059 25.8001 3.40039 25.3999 4.40039 25.3999C5.40039 25.3999 6.5002 25.8001 7.2002 26.6001C7.4002 26.8001 7.5002 26.9997 7.7002 27.1997C7.8002 27.3997 8.00059 27.6999 8.10059 27.8999C8.20059 28.0999 8.2998 28.3997 8.2998 28.6997C8.2998 28.9997 8.40039 29.2 8.40039 29.5C8.40039 29.7 8.3998 29.9998 8.2998 30.2998C8.2998 30.4998 8.20059 30.8 8.10059 31C8.00059 31.2 7.9002 31.4997 7.7002 31.6997C7.5002 31.8997 7.4002 32.0998 7.2002 32.2998C7.0002 32.4998 6.80059 32.5998 6.60059 32.7998C6.40059 32.8998 6.10039 33.0997 5.90039 33.1997C5.70039 33.2997 5.40059 33.3999 5.10059 33.3999C4.90059 33.3999 4.60039 33.3999 4.40039 33.3999Z" fill="#FFC44C"/>
    <path d="M30.1006 8.1001C29.8006 8.1001 29.5998 8.1 29.2998 8C29.0998 8 28.8 7.8998 28.5 7.7998C28.3 7.6998 27.9998 7.5999 27.7998 7.3999C27.5998 7.1999 27.4002 7.0999 27.2002 6.8999C27.0002 6.6999 26.8002 6.4998 26.7002 6.2998C26.6002 6.0998 26.3998 5.8001 26.2998 5.6001C26.1998 5.4001 26.1006 5.0999 26.1006 4.8999C26.1006 4.5999 26 4.4001 26 4.1001C26 3.8001 26.0006 3.5998 26.1006 3.2998C26.1006 3.0998 26.1998 2.8 26.2998 2.5C26.3998 2.3 26.5002 1.9998 26.7002 1.7998C26.8002 1.5998 27.0002 1.39971 27.2002 1.19971C27.9002 0.399707 29 0 30 0C31 0 32.0998 0.399707 32.7998 1.19971C32.9998 1.39971 33.1998 1.5998 33.2998 1.7998C33.3998 1.9998 33.6002 2.3 33.7002 2.5C33.8002 2.7 33.9004 2.9998 33.9004 3.2998C33.9004 3.5998 34 3.8001 34 4.1001C34 4.4001 34.0004 4.5999 33.9004 4.8999C33.8004 5.0999 33.8002 5.4001 33.7002 5.6001C33.6002 5.8001 33.4998 6.0998 33.2998 6.2998C33.1998 6.4998 32.9998 6.6999 32.7998 6.8999C32.5998 7.0999 32.4002 7.1999 32.2002 7.3999C32.0002 7.4999 31.8 7.6998 31.5 7.7998C31.3 7.8998 30.9998 8 30.7998 8C30.5998 8.1 30.3006 8.1001 30.1006 8.1001Z" fill="#FFC44C"/>
    <path d="M4.10059 69.3997C3.80059 69.3997 3.5998 69.3996 3.2998 69.2996C3.0998 69.2996 2.8 69.1999 2.5 69.0999C2.3 68.9999 1.9998 68.8995 1.7998 68.6995C1.5998 68.5995 1.4002 68.3995 1.2002 68.1995C1.0002 67.9995 0.800195 67.7999 0.700195 67.5999C0.600195 67.3999 0.399805 67.0997 0.299805 66.8997C0.199805 66.6997 0.100586 66.3999 0.100586 66.0999C0.100586 65.7999 0 65.5996 0 65.2996C0 64.9996 0.000585936 64.7998 0.100586 64.4998C0.200586 64.1998 0.199805 63.9995 0.299805 63.6995C0.399805 63.4995 0.500195 63.1998 0.700195 62.9998C0.800195 62.7998 1.0002 62.5997 1.2002 62.3997C1.4002 62.1997 1.5998 61.9997 1.7998 61.8997C1.9998 61.7997 2.3 61.5998 2.5 61.4998C2.7 61.3998 2.9998 61.2996 3.2998 61.2996C3.7998 61.1996 4.40039 61.1996 4.90039 61.2996C5.10039 61.2996 5.40059 61.3998 5.60059 61.4998C5.80059 61.5998 6.0998 61.6997 6.2998 61.8997C6.4998 61.9997 6.70039 62.1997 6.90039 62.3997C7.10039 62.5997 7.20039 62.7998 7.40039 62.9998C7.50039 63.1998 7.6998 63.4995 7.7998 63.6995C7.8998 63.8995 8 64.1998 8 64.4998C8.1 64.7998 8.10059 64.9996 8.10059 65.2996C8.10059 65.5996 8.1 65.7999 8 66.0999C7.9 66.3999 7.8998 66.5997 7.7998 66.8997C7.6998 67.0997 7.60039 67.3999 7.40039 67.5999C7.20039 67.7999 7.10039 67.9995 6.90039 68.1995C6.70039 68.3995 6.4998 68.4995 6.2998 68.6995C6.0998 68.8995 5.90059 68.9999 5.60059 69.0999C5.40059 69.1999 5.10039 69.2996 4.90039 69.2996C4.60039 69.3996 4.30059 69.3997 4.10059 69.3997Z" fill="#FFC44C"/>
    <path d="M66.1006 8.50017C65.1006 8.50017 63.9998 8.09998 63.2998 7.29998C63.0998 7.09998 62.9998 6.89988 62.7998 6.69988C62.6998 6.49988 62.5004 6.20017 62.4004 6.00017C62.3004 5.80017 62.2002 5.49988 62.2002 5.19988C62.2002 4.89988 62.1006 4.70008 62.1006 4.40007C62.1006 4.10008 62.1002 3.90027 62.2002 3.60027C62.2002 3.30027 62.3004 3.09998 62.4004 2.79998C62.5004 2.59998 62.5998 2.30027 62.7998 2.10027C62.9998 1.90027 63.0998 1.70017 63.2998 1.50017C63.4998 1.30017 63.7004 1.10017 63.9004 1.00017C64.1004 0.900172 64.4006 0.70027 64.6006 0.60027C64.8006 0.50027 65.1004 0.400075 65.4004 0.400075C66.7004 0.200075 68.1 0.600173 69 1.50017C69.2 1.70017 69.3 1.90027 69.5 2.10027C69.6 2.30027 69.8004 2.59998 69.9004 2.79998C70.0004 2.99998 70.1006 3.30027 70.1006 3.60027C70.1006 3.80027 70.2002 4.10008 70.2002 4.40007C70.2002 4.70008 70.2006 4.89988 70.1006 5.19988C70.1006 5.39988 70.0004 5.70017 69.9004 6.00017C69.8004 6.20017 69.7 6.49988 69.5 6.69988C69.4 6.89988 69.2 7.09998 69 7.29998C68.2 7.99998 67.2006 8.50017 66.1006 8.50017Z" fill="#FFC44C"/>
    <path d="M4.40039 33.3999C3.30039 33.3999 2.30059 32.9997 1.60059 32.1997C1.40059 31.9997 1.20059 31.8001 1.10059 31.6001C1.00059 31.4001 0.800195 31.1999 0.700195 30.8999C0.600195 30.6999 0.5 30.3997 0.5 30.1997C0.4 29.8997 0.400391 29.6999 0.400391 29.3999C0.400391 28.2999 0.800586 27.3001 1.60059 26.6001C2.30059 25.8001 3.40039 25.3999 4.40039 25.3999C5.40039 25.3999 6.5002 25.8001 7.2002 26.6001C7.4002 26.8001 7.5002 26.9997 7.7002 27.1997C7.8002 27.3997 8.00059 27.6999 8.10059 27.8999C8.20059 28.0999 8.2998 28.3997 8.2998 28.6997C8.2998 28.9997 8.40039 29.2 8.40039 29.5C8.40039 29.7 8.3998 29.9998 8.2998 30.2998C8.2998 30.4998 8.20059 30.8 8.10059 31C8.00059 31.2 7.9002 31.4997 7.7002 31.6997C7.5002 31.8997 7.4002 32.0998 7.2002 32.2998C7.0002 32.4998 6.80059 32.5998 6.60059 32.7998C6.40059 32.8998 6.10039 33.0997 5.90039 33.1997C5.70039 33.2997 5.40059 33.3999 5.10059 33.3999C4.90059 33.3999 4.60039 33.3999 4.40039 33.3999Z" fill="#FFC44C"/>
    <path d="M34.6004 15.7999C52.0004 8.79992 71.8002 17.4001 78.9002 35.0001C86.0002 52.6001 77.6996 72.6002 60.2996 79.6002C42.8996 86.6002 23.0998 78 15.9998 60.4C8.99979 42.8 17.3004 22.7999 34.6004 15.7999Z" fill="url(#paint0_linear_0_6369)"/>
    <path d="M55.2998 122.2C55.1998 122.2 55.2006 122.2 55.1006 122.2C36.8006 121.4 22.6004 105.9 23.4004 87.6001C24.2004 69.3001 39.8 55.0999 58 55.8999C58 55.8999 58.0006 55.8999 58.1006 55.8999C59.0006 46.2999 63.3004 37.6001 70.4004 31.1001C78.0004 24.2001 87.8006 20.6001 98.1006 21.1001C117.101 21.9001 132.401 36.3999 134.601 54.8999C136.101 54.7999 137.601 54.6998 139.101 54.7998C157.401 55.5998 171.6 71.0999 170.8 89.3999C170.4 98.2999 166.6 106.4 160 112.4C153.5 118.4 145.1 121.4 136.2 121.1L55.2998 122.2C55.3998 122.2 55.2998 122.2 55.2998 122.2ZM56.6006 63.8999C43.2006 63.8999 32.1 74.5 31.5 88C30.9 101.8 41.6004 113.6 55.4004 114.3L136.3 113.1C136.4 113.1 136.5 113.1 136.5 113.1C143.2 113.4 149.701 111.1 154.601 106.5C159.601 102 162.5 95.8 162.8 89C163.4 75.1 152.6 63.2997 138.8 62.6997C136.5 62.5997 134.1 62.7999 131.9 63.3999C130.7 63.6999 129.5 63.4001 128.5 62.6001C127.5 61.8001 127 60.7 127 59.5C127 43.2 114.2 29.8001 97.9004 29.1001C81.4004 28.4001 67.4002 40.8998 66.2002 57.2998C74.4002 59.6998 81.4002 65.1999 85.7002 72.8999C86.8002 74.7999 86.1002 77.2998 84.2002 78.2998C82.3002 79.3998 79.7998 78.6998 78.7998 76.7998C74.4998 69.0998 66.7004 64.2999 57.9004 63.8999C57.4004 63.8999 57.0006 63.8999 56.6006 63.8999Z" fill="white"/>
    <defs>
        <linearGradient id="paint0_linear_0_6369" x1="60.7188" y1="79.7383" x2="34.9488" y2="15.9553" gradientUnits="userSpaceOnUse">
            <stop stop-color="#FFC14C"/>
            <stop offset="1" stop-color="#FFD04D"/>
        </linearGradient>
    </defs>
</svg>
