<svg width="168" height="150" viewBox="0 0 168 150" fill="none" xmlns="http://www.w3.org/2000/svg">
    <path d="M46.5 8C46.2 8 46.0002 7.9999 45.7002 7.8999C45.5002 7.8999 45.2 7.8002 45 7.7002C44.8 7.6002 44.5008 7.4998 44.3008 7.2998C44.1008 7.0998 43.9002 6.9998 43.7002 6.7998C42.9002 5.9998 42.5 5 42.5 4C42.5 3 42.9002 1.9002 43.7002 1.2002C44.4002 0.500195 45.5 0 46.5 0C47.6 0 48.6008 0.400195 49.3008 1.2002C49.5008 1.4002 49.6008 1.5998 49.8008 1.7998C49.9008 1.9998 50.1002 2.2 50.2002 2.5C50.3002 2.8 50.4004 2.9998 50.4004 3.2998C50.5004 3.5998 50.5 3.8001 50.5 4.1001C50.5 4.4001 50.5004 4.5999 50.4004 4.8999C50.3004 5.1999 50.3002 5.4002 50.2002 5.7002C50.1002 5.9002 50.0008 6.1999 49.8008 6.3999C49.6008 6.5999 49.5008 6.8 49.3008 7C48.6008 7.6 47.6 8 46.5 8Z" fill="#FFC44C"/>
    <path d="M4 50.4998C2.9 50.4998 1.9002 50.0996 1.2002 49.2996C1.0002 49.0996 0.800195 48.9 0.700195 48.7C0.500195 48.5 0.400781 48.1998 0.300781 47.9998C0.200781 47.7998 0.100586 47.5 0.100586 47.2C0.000585936 47 0 46.6997 0 46.3997C0 46.0997 0.000585936 45.8999 0.100586 45.5999C0.100586 45.2999 0.200781 45.0996 0.300781 44.7996C0.400781 44.5996 0.500195 44.2999 0.700195 44.0999C0.800195 43.8999 1.0002 43.6998 1.2002 43.4998C1.4002 43.2998 1.60078 43.1998 1.80078 42.9998C2.00078 42.8998 2.3 42.6999 2.5 42.5999C2.7 42.4999 3.00078 42.3997 3.30078 42.3997C4.60078 42.0997 6.00039 42.5998 6.90039 43.4998C7.10039 43.6998 7.20039 43.8999 7.40039 44.0999C7.50039 44.2999 7.70078 44.5996 7.80078 44.7996C7.90078 44.9996 8 45.2999 8 45.5999C8.1 45.8999 8.10059 46.0997 8.10059 46.3997C8.10059 46.6997 8.1 46.9 8 47.2C8 47.5 7.90078 47.6998 7.80078 47.9998C7.70078 48.1998 7.60039 48.5 7.40039 48.7C7.20039 48.9 7.10039 49.0996 6.90039 49.2996C6.10039 50.0996 5.1 50.4998 4 50.4998Z" fill="#FFC44C"/>
    <path d="M76.6006 20.4998C76.3006 20.4998 76.1008 20.4997 75.8008 20.3997C75.5008 20.2997 75.3 20.3 75 20.2C74.8 20.1 74.5008 19.9996 74.3008 19.7996C74.1008 19.5996 73.9002 19.4996 73.7002 19.2996C73.5002 19.0996 73.4002 18.9 73.2002 18.7C73.1002 18.5 72.9008 18.1998 72.8008 17.9998C72.7008 17.7998 72.6006 17.4996 72.6006 17.2996C72.6006 16.9996 72.5 16.7998 72.5 16.4998C72.5 16.1998 72.5006 16 72.6006 15.7C72.6006 15.5 72.7008 15.1997 72.8008 14.8997C72.9008 14.6997 73.0002 14.4 73.2002 14.2C73.3002 14 73.5002 13.7999 73.7002 13.5999C73.9002 13.3999 74.1008 13.1999 74.3008 13.0999C74.5008 12.8999 74.7 12.8 75 12.7C75.3 12.6 75.5008 12.4998 75.8008 12.4998C77.1008 12.1998 78.5004 12.6999 79.4004 13.5999C79.6004 13.7999 79.7004 14 79.9004 14.2C80.0004 14.4 80.2008 14.6997 80.3008 14.8997C80.4008 15.0997 80.5 15.4 80.5 15.7C80.5 16 80.6006 16.1998 80.6006 16.4998C80.6006 16.7998 80.6 16.9996 80.5 17.2996C80.5 17.4996 80.4008 17.7998 80.3008 17.9998C80.2008 18.1998 80.1004 18.5 79.9004 18.7C79.7004 18.9 79.6004 19.0996 79.4004 19.2996C79.2004 19.4996 79.0008 19.5996 78.8008 19.7996C78.6008 19.8996 78.3006 20.1 78.1006 20.2C77.9006 20.3 77.6008 20.3997 77.3008 20.3997C77.1008 20.3997 76.9006 20.4998 76.6006 20.4998Z" fill="#FFC44C"/>
    <path d="M16.5 20.4998C16.2 20.4998 16.0002 20.4997 15.7002 20.3997C15.4002 20.2997 15.2004 20.3 14.9004 20.2C14.7004 20.1 14.4002 19.9996 14.2002 19.7996C14.0002 19.5996 13.8006 19.4996 13.6006 19.2996C13.4006 19.0996 13.2006 18.9 13.1006 18.7C13.0006 18.5 12.8002 18.2998 12.7002 17.9998C12.6002 17.7998 12.5 17.4996 12.5 17.2996C12.4 16.9996 12.4004 16.7998 12.4004 16.4998C12.4004 16.1998 12.4 16 12.5 15.7C12.5 15.5 12.6002 15.1997 12.7002 14.8997C12.8002 14.6997 12.9006 14.4 13.1006 14.2C13.2006 14 13.4006 13.7999 13.6006 13.5999C13.8006 13.3999 14.0002 13.1999 14.2002 13.0999C14.4002 12.8999 14.7004 12.8 14.9004 12.7C15.1004 12.6 15.4002 12.4998 15.7002 12.4998C16.2002 12.3998 16.7008 12.3998 17.3008 12.4998C17.6008 12.4998 17.8006 12.6 18.1006 12.7C18.3006 12.8 18.6008 12.8999 18.8008 13.0999C19.0008 13.1999 19.2004 13.3999 19.4004 13.5999C19.6004 13.7999 19.7004 14 19.9004 14.2C20.0004 14.4 20.2008 14.6997 20.3008 14.8997C20.4008 15.0997 20.5 15.4 20.5 15.7C20.5 16 20.6006 16.1998 20.6006 16.4998C20.6006 16.7998 20.6 16.9996 20.5 17.2996C20.5 17.4996 20.4008 17.7998 20.3008 17.9998C20.2008 18.1998 20.1004 18.5 19.9004 18.7C19.7004 18.9 19.6004 19.0996 19.4004 19.2996C19.2004 19.4996 19.0008 19.5996 18.8008 19.7996C18.6008 19.8996 18.3006 20.1 18.1006 20.2C17.9006 20.3 17.6008 20.3997 17.3008 20.3997C17.0008 20.3997 16.7 20.4998 16.5 20.4998Z" fill="#FFC44C"/>
    <path d="M46.5 8C46.2 8 46.0002 7.9999 45.7002 7.8999C45.5002 7.8999 45.2 7.8002 45 7.7002C44.8 7.6002 44.5008 7.4998 44.3008 7.2998C44.1008 7.0998 43.9002 6.9998 43.7002 6.7998C42.9002 5.9998 42.5 5 42.5 4C42.5 3 42.9002 1.9002 43.7002 1.2002C44.4002 0.500195 45.5 0 46.5 0C47.6 0 48.6008 0.400195 49.3008 1.2002C49.5008 1.4002 49.6008 1.5998 49.8008 1.7998C49.9008 1.9998 50.1002 2.2 50.2002 2.5C50.3002 2.8 50.4004 2.9998 50.4004 3.2998C50.5004 3.5998 50.5 3.8001 50.5 4.1001C50.5 4.4001 50.5004 4.5999 50.4004 4.8999C50.3004 5.1999 50.3002 5.4002 50.2002 5.7002C50.1002 5.9002 50.0008 6.1999 49.8008 6.3999C49.6008 6.5999 49.5008 6.8 49.3008 7C48.6008 7.6 47.6 8 46.5 8Z" fill="#FFC44C"/>
    <path d="M4 50.4998C2.9 50.4998 1.9002 50.0996 1.2002 49.2996C1.0002 49.0996 0.800195 48.9 0.700195 48.7C0.500195 48.5 0.400781 48.1998 0.300781 47.9998C0.200781 47.7998 0.100586 47.5 0.100586 47.2C0.000585936 47 0 46.6997 0 46.3997C0 46.0997 0.000585936 45.8999 0.100586 45.5999C0.100586 45.2999 0.200781 45.0996 0.300781 44.7996C0.400781 44.5996 0.500195 44.2999 0.700195 44.0999C0.800195 43.8999 1.0002 43.6998 1.2002 43.4998C1.4002 43.2998 1.60078 43.1998 1.80078 42.9998C2.00078 42.8998 2.3 42.6999 2.5 42.5999C2.7 42.4999 3.00078 42.3997 3.30078 42.3997C4.60078 42.0997 6.00039 42.5998 6.90039 43.4998C7.10039 43.6998 7.20039 43.8999 7.40039 44.0999C7.50039 44.2999 7.70078 44.5996 7.80078 44.7996C7.90078 44.9996 8 45.2999 8 45.5999C8.1 45.8999 8.10059 46.0997 8.10059 46.3997C8.10059 46.6997 8.1 46.9 8 47.2C8 47.5 7.90078 47.6998 7.80078 47.9998C7.70078 48.1998 7.60039 48.5 7.40039 48.7C7.20039 48.9 7.10039 49.0996 6.90039 49.2996C6.10039 50.0996 5.1 50.4998 4 50.4998Z" fill="#FFC44C"/>
    <path d="M76.6006 20.4998C76.3006 20.4998 76.1008 20.4997 75.8008 20.3997C75.5008 20.2997 75.3 20.3 75 20.2C74.8 20.1 74.5008 19.9996 74.3008 19.7996C74.1008 19.5996 73.9002 19.4996 73.7002 19.2996C73.5002 19.0996 73.4002 18.9 73.2002 18.7C73.1002 18.5 72.9008 18.1998 72.8008 17.9998C72.7008 17.7998 72.6006 17.4996 72.6006 17.2996C72.6006 16.9996 72.5 16.7998 72.5 16.4998C72.5 16.1998 72.5006 16 72.6006 15.7C72.6006 15.5 72.7008 15.1997 72.8008 14.8997C72.9008 14.6997 73.0002 14.4 73.2002 14.2C73.3002 14 73.5002 13.7999 73.7002 13.5999C73.9002 13.3999 74.1008 13.1999 74.3008 13.0999C74.5008 12.8999 74.7 12.8 75 12.7C75.3 12.6 75.5008 12.4998 75.8008 12.4998C77.1008 12.1998 78.5004 12.6999 79.4004 13.5999C79.6004 13.7999 79.7004 14 79.9004 14.2C80.0004 14.4 80.2008 14.6997 80.3008 14.8997C80.4008 15.0997 80.5 15.4 80.5 15.7C80.5 16 80.6006 16.1998 80.6006 16.4998C80.6006 16.7998 80.6 16.9996 80.5 17.2996C80.5 17.4996 80.4008 17.7998 80.3008 17.9998C80.2008 18.1998 80.1004 18.5 79.9004 18.7C79.7004 18.9 79.6004 19.0996 79.4004 19.2996C79.2004 19.4996 79.0008 19.5996 78.8008 19.7996C78.6008 19.8996 78.3006 20.1 78.1006 20.2C77.9006 20.3 77.6008 20.3997 77.3008 20.3997C77.1008 20.3997 76.9006 20.4998 76.6006 20.4998Z" fill="#FFC44C"/>
    <path d="M16.5 20.4998C16.2 20.4998 16.0002 20.4997 15.7002 20.3997C15.4002 20.2997 15.2004 20.3 14.9004 20.2C14.7004 20.1 14.4002 19.9996 14.2002 19.7996C14.0002 19.5996 13.8006 19.4996 13.6006 19.2996C13.4006 19.0996 13.2006 18.9 13.1006 18.7C13.0006 18.5 12.8002 18.2998 12.7002 17.9998C12.6002 17.7998 12.5 17.4996 12.5 17.2996C12.4 16.9996 12.4004 16.7998 12.4004 16.4998C12.4004 16.1998 12.4 16 12.5 15.7C12.5 15.5 12.6002 15.1997 12.7002 14.8997C12.8002 14.6997 12.9006 14.4 13.1006 14.2C13.2006 14 13.4006 13.7999 13.6006 13.5999C13.8006 13.3999 14.0002 13.1999 14.2002 13.0999C14.4002 12.8999 14.7004 12.8 14.9004 12.7C15.1004 12.6 15.4002 12.4998 15.7002 12.4998C16.2002 12.3998 16.7008 12.3998 17.3008 12.4998C17.6008 12.4998 17.8006 12.6 18.1006 12.7C18.3006 12.8 18.6008 12.8999 18.8008 13.0999C19.0008 13.1999 19.2004 13.3999 19.4004 13.5999C19.6004 13.7999 19.7004 14 19.9004 14.2C20.0004 14.4 20.2008 14.6997 20.3008 14.8997C20.4008 15.0997 20.5 15.4 20.5 15.7C20.5 16 20.6006 16.1998 20.6006 16.4998C20.6006 16.7998 20.6 16.9996 20.5 17.2996C20.5 17.4996 20.4008 17.7998 20.3008 17.9998C20.2008 18.1998 20.1004 18.5 19.9004 18.7C19.7004 18.9 19.6004 19.0996 19.4004 19.2996C19.2004 19.4996 19.0008 19.5996 18.8008 19.7996C18.6008 19.8996 18.3006 20.1 18.1006 20.2C17.9006 20.3 17.6008 20.3997 17.3008 20.3997C17.0008 20.3997 16.7 20.4998 16.5 20.4998Z" fill="#FFC44C"/>
    <path d="M11.5 79.6C10.4 79.6 9.4002 79.1998 8.7002 78.3998C8.0002 77.6998 7.5 76.6 7.5 75.6C7.5 74.5 7.9002 73.4997 8.7002 72.7997C8.9002 72.5997 9.10078 72.4997 9.30078 72.2997C9.50078 72.1997 9.8 71.9998 10 71.8998C10.2 71.7998 10.5008 71.7 10.8008 71.7C12.1008 71.4 13.5004 71.8997 14.4004 72.7997C15.1004 73.4997 15.6006 74.6 15.6006 75.6C15.6006 76.6 15.2004 77.6998 14.4004 78.3998C14.2004 78.5998 14.0008 78.7998 13.8008 78.8998C13.6008 78.9998 13.3006 79.1997 13.1006 79.2997C12.9006 79.3997 12.6008 79.4999 12.3008 79.4999C12.0008 79.5999 11.7 79.6 11.5 79.6Z" fill="#FFC44C"/>
    <path d="M46.4004 77.5C63.3003 77.5 77 63.576 77 46.3999C77 29.2238 63.3003 15.2998 46.4004 15.2998C29.5005 15.2998 15.8008 29.2238 15.8008 46.3999C15.8008 63.576 29.5005 77.5 46.4004 77.5Z" fill="url(#paint0_linear_0_6332)"/>
    <path d="M147.72 118.761C146.22 118.761 144.719 117.861 144.119 116.461C143.219 114.461 144.119 112.061 146.119 111.161C154.319 107.461 159.62 99.5613 160.02 90.5613C160.32 84.1613 158.119 78.0611 153.819 73.3611C149.519 68.6611 143.619 65.9614 137.319 65.6614C135.119 65.5614 132.92 65.761 130.72 66.261C129.52 66.561 128.319 66.2612 127.319 65.4612C126.319 64.6612 125.819 63.5611 125.819 62.3611C125.819 46.8611 113.72 34.1613 98.2197 33.5613C90.5197 33.2613 83.1199 35.8613 77.4199 41.0613C71.7199 46.2613 68.4195 53.3613 68.0195 61.0613L67.9199 63.3611L59.9199 63.0613L60.0195 60.761C60.4195 50.861 64.7199 41.8614 71.9199 35.1614C79.2199 28.5614 88.6199 25.0613 98.4199 25.5613C116.62 26.3613 131.119 40.161 133.319 57.761C134.719 57.661 136.12 57.6614 137.42 57.6614C145.92 58.0614 153.72 61.6612 159.52 67.9612C165.22 74.2612 168.219 82.3611 167.819 90.8611C167.319 102.861 160.12 113.461 149.22 118.461C148.82 118.661 148.22 118.761 147.72 118.761Z" fill="white"/>
    <path d="M42.3191 116.961C41.5191 116.961 40.6196 116.661 39.9196 116.161C31.4196 109.861 26.6193 99.7613 27.0193 89.1613C27.8193 71.6613 42.7195 57.9609 60.2195 58.7609C71.3195 59.2609 81.2189 65.3612 86.6189 75.0612C87.7189 76.9612 87.0189 79.4611 85.1189 80.4611C83.2189 81.5611 80.7195 80.8611 79.7195 78.9611C75.6195 71.6611 68.3193 67.1609 60.0193 66.7609C46.9193 66.1609 35.7189 76.3612 35.1189 89.5612C34.7189 97.4612 38.3195 105.061 44.7194 109.761C46.5194 111.061 46.8193 113.561 45.5193 115.361C44.7193 116.361 43.5191 116.961 42.3191 116.961Z" fill="white"/>
    <path d="M116.119 128.861C113.919 128.861 112.119 127.061 112.119 124.861V112.261C112.119 110.061 113.919 108.261 116.119 108.261C118.319 108.261 120.119 110.061 120.119 112.261V124.861C120.119 127.061 118.319 128.861 116.119 128.861Z" fill="#57AAFF"/>
    <path d="M133.42 144.161C131.22 144.161 129.42 142.361 129.42 140.161V131.461C129.42 129.261 131.22 127.461 133.42 127.461C135.62 127.461 137.42 129.261 137.42 131.461V140.161C137.42 142.361 135.62 144.161 133.42 144.161Z" fill="#57AAFF"/>
    <path d="M94.3196 118.361C92.2196 118.361 90.4196 116.661 90.3196 114.461L90.0198 105.161C89.9198 102.961 91.6202 101.061 93.9202 101.061C96.1202 100.961 98.0198 102.661 98.0198 104.961L98.3196 114.261C98.4196 116.461 96.7202 118.361 94.4202 118.361C94.4202 118.361 94.4196 118.361 94.3196 118.361Z" fill="#57AAFF"/>
    <path d="M101.319 149.861C99.1193 149.861 97.3193 148.061 97.3193 145.861V137.261C97.3193 135.061 99.1193 133.261 101.319 133.261C103.519 133.261 105.319 135.061 105.319 137.261V145.861C105.319 148.061 103.519 149.861 101.319 149.861Z" fill="#57AAFF"/>
    <path d="M74.5195 136.961C72.3195 136.961 70.5195 135.161 70.5195 132.961V120.761C70.5195 118.561 72.3195 116.761 74.5195 116.761C76.7195 116.761 78.5195 118.561 78.5195 120.761V132.961C78.5195 135.161 76.7195 136.961 74.5195 136.961Z" fill="#57AAFF"/>
    <path d="M55.5195 145.461C53.3195 145.461 51.5195 143.661 51.5195 141.461V131.361C51.5195 129.161 53.3195 127.361 55.5195 127.361C57.7195 127.361 59.5195 129.161 59.5195 131.361V141.461C59.5195 143.661 57.7195 145.461 55.5195 145.461Z" fill="#57AAFF"/>
    <defs>
        <linearGradient id="paint0_linear_0_6332" x1="46.4214" y1="77.4266" x2="46.4214" y2="15.2844" gradientUnits="userSpaceOnUse">
            <stop stop-color="#FFC14C"/>
            <stop offset="1" stop-color="#FFD04D"/>
        </linearGradient>
    </defs>
</svg>
