<svg width="173" height="168" viewBox="0 0 173 168" fill="none" xmlns="http://www.w3.org/2000/svg">
    <path d="M46.5 7.98711C45.5 7.98711 44.4002 7.58691 43.7002 6.78691C42.9002 5.98691 42.5 4.98711 42.5 3.98711C42.5 2.98711 42.9002 1.8873 43.7002 1.1873C43.9002 0.987304 44.1008 0.787304 44.3008 0.687304C44.5008 0.587304 44.8 0.386914 45 0.286914C45.2 0.186914 45.5008 0.0872068 45.8008 0.0872068C47.1008 -0.212793 48.5004 0.287304 49.4004 1.1873C50.2004 1.9873 50.6006 2.98711 50.6006 3.98711C50.6006 4.28711 50.6 4.48691 50.5 4.78691C50.4 5.08691 50.4008 5.28721 50.3008 5.58721C50.2008 5.78721 50.1004 6.08691 49.9004 6.28691C49.8004 6.48691 49.6004 6.68701 49.4004 6.88701C49.2004 7.08701 49.0008 7.18701 48.8008 7.38701C48.6008 7.48701 48.3006 7.68691 48.1006 7.78691C47.9006 7.88691 47.6004 7.98711 47.4004 7.98711C47.1004 7.98711 46.8 7.98711 46.5 7.98711Z" fill="#FFC44C"/>
    <path d="M4 50.4873C3 50.4873 1.9002 50.0871 1.2002 49.2871C0.400195 48.5871 0 47.4873 0 46.4873C0 45.4873 0.400195 44.3875 1.2002 43.6875C1.9002 42.9875 3 42.4873 4 42.4873C5.1 42.4873 6.10078 42.8875 6.80078 43.6875C7.60078 44.4875 8 45.4873 8 46.4873C8 46.7873 8.00039 46.9871 7.90039 47.2871C7.90039 47.5871 7.8002 47.7874 7.7002 48.0874C7.6002 48.2874 7.50078 48.5871 7.30078 48.7871C7.10078 48.9871 7.00078 49.1872 6.80078 49.3872C6.60078 49.5872 6.4002 49.7872 6.2002 49.8872C6.0002 49.9872 5.8 50.1871 5.5 50.2871C5.3 50.3871 5.00078 50.4873 4.80078 50.4873C4.50078 50.4873 4.3 50.4873 4 50.4873Z" fill="#FFC44C"/>
    <path d="M76.6006 20.4871C76.3006 20.4871 76.1008 20.487 75.8008 20.387C75.6008 20.287 75.3 20.2873 75 20.1873C74.8 20.0873 74.5008 19.9869 74.3008 19.7869C74.1008 19.5869 73.9002 19.4869 73.7002 19.2869C73.5002 19.0869 73.4002 18.8873 73.2002 18.6873C73.1002 18.4873 72.9008 18.1871 72.8008 17.9871C72.7008 17.7871 72.6006 17.4869 72.6006 17.2869C72.6006 16.9869 72.5 16.7871 72.5 16.4871C72.5 16.1871 72.5006 15.9873 72.6006 15.6873C72.6006 15.4873 72.7008 15.187 72.8008 14.887C72.9008 14.687 73.0002 14.3873 73.2002 14.1873C73.3002 13.9873 73.5002 13.7872 73.7002 13.5872C73.9002 13.3872 74.1008 13.1872 74.3008 13.0872C74.5008 12.8872 74.7 12.7873 75 12.6873C75.3 12.5873 75.5008 12.4871 75.8008 12.4871C76.3008 12.3871 76.8004 12.3871 77.4004 12.4871C77.7004 12.4871 77.9002 12.5873 78.2002 12.6873C78.4002 12.7873 78.7004 12.8872 78.9004 13.0872C79.1004 13.1872 79.3 13.3872 79.5 13.5872C80.3 14.2872 80.7002 15.387 80.7002 16.387C80.7002 17.387 80.3 18.4873 79.5 19.1873C79.3 19.3873 79.1004 19.4873 78.9004 19.6873C78.7004 19.7873 78.4002 19.9872 78.2002 20.0872C78.0002 20.1872 77.7004 20.2869 77.4004 20.2869C77.1004 20.3869 76.9006 20.4871 76.6006 20.4871Z" fill="#FFC44C"/>
    <path d="M16.5 20.4871C16.2 20.4871 16.0002 20.487 15.7002 20.387C15.4002 20.287 15.2004 20.2873 14.9004 20.1873C14.7004 20.0873 14.4002 19.9869 14.2002 19.7869C14.0002 19.5869 13.8006 19.4869 13.6006 19.2869C12.8006 18.5869 12.4004 17.4871 12.4004 16.4871C12.4004 15.3871 12.8006 14.3873 13.6006 13.6873C13.8006 13.4873 14.0002 13.2873 14.2002 13.1873C14.4002 12.9873 14.7004 12.8869 14.9004 12.7869C15.1004 12.6869 15.4002 12.5872 15.7002 12.5872C16.2002 12.4872 16.7008 12.4872 17.3008 12.5872C17.6008 12.5872 17.8006 12.6869 18.1006 12.7869C18.3006 12.8869 18.6008 12.9873 18.8008 13.1873C19.0008 13.2873 19.2004 13.4873 19.4004 13.6873C20.1004 14.4873 20.6006 15.4871 20.6006 16.4871C20.6006 17.4871 20.2004 18.5869 19.4004 19.2869C19.2004 19.4869 19.0008 19.5869 18.8008 19.7869C18.6008 19.8869 18.3006 20.0873 18.1006 20.1873C17.9006 20.2873 17.6008 20.387 17.3008 20.387C17.0008 20.387 16.7 20.4871 16.5 20.4871Z" fill="#FFC44C"/>
    <path d="M46.5 7.98711C45.5 7.98711 44.4002 7.58691 43.7002 6.78691C42.9002 5.98691 42.5 4.98711 42.5 3.98711C42.5 2.98711 42.9002 1.8873 43.7002 1.1873C43.9002 0.987304 44.1008 0.787304 44.3008 0.687304C44.5008 0.587304 44.8 0.386914 45 0.286914C45.2 0.186914 45.5008 0.0872068 45.8008 0.0872068C47.1008 -0.212793 48.5004 0.287304 49.4004 1.1873C50.2004 1.9873 50.6006 2.98711 50.6006 3.98711C50.6006 4.28711 50.6 4.48691 50.5 4.78691C50.4 5.08691 50.4008 5.28721 50.3008 5.58721C50.2008 5.78721 50.1004 6.08691 49.9004 6.28691C49.8004 6.48691 49.6004 6.68701 49.4004 6.88701C49.2004 7.08701 49.0008 7.18701 48.8008 7.38701C48.6008 7.48701 48.3006 7.68691 48.1006 7.78691C47.9006 7.88691 47.6004 7.98711 47.4004 7.98711C47.1004 7.98711 46.8 7.98711 46.5 7.98711Z" fill="#FFC44C"/>
    <path d="M4 50.4873C3 50.4873 1.9002 50.0871 1.2002 49.2871C0.400195 48.5871 0 47.4873 0 46.4873C0 45.4873 0.400195 44.3875 1.2002 43.6875C1.9002 42.9875 3 42.4873 4 42.4873C5.1 42.4873 6.10078 42.8875 6.80078 43.6875C7.60078 44.4875 8 45.4873 8 46.4873C8 46.7873 8.00039 46.9871 7.90039 47.2871C7.90039 47.5871 7.8002 47.7874 7.7002 48.0874C7.6002 48.2874 7.50078 48.5871 7.30078 48.7871C7.10078 48.9871 7.00078 49.1872 6.80078 49.3872C6.60078 49.5872 6.4002 49.7872 6.2002 49.8872C6.0002 49.9872 5.8 50.1871 5.5 50.2871C5.3 50.3871 5.00078 50.4873 4.80078 50.4873C4.50078 50.4873 4.3 50.4873 4 50.4873Z" fill="#FFC44C"/>
    <path d="M76.6006 20.4871C76.3006 20.4871 76.1008 20.487 75.8008 20.387C75.6008 20.287 75.3 20.2873 75 20.1873C74.8 20.0873 74.5008 19.9869 74.3008 19.7869C74.1008 19.5869 73.9002 19.4869 73.7002 19.2869C73.5002 19.0869 73.4002 18.8873 73.2002 18.6873C73.1002 18.4873 72.9008 18.1871 72.8008 17.9871C72.7008 17.7871 72.6006 17.4869 72.6006 17.2869C72.6006 16.9869 72.5 16.7871 72.5 16.4871C72.5 16.1871 72.5006 15.9873 72.6006 15.6873C72.6006 15.4873 72.7008 15.187 72.8008 14.887C72.9008 14.687 73.0002 14.3873 73.2002 14.1873C73.3002 13.9873 73.5002 13.7872 73.7002 13.5872C73.9002 13.3872 74.1008 13.1872 74.3008 13.0872C74.5008 12.8872 74.7 12.7873 75 12.6873C75.3 12.5873 75.5008 12.4871 75.8008 12.4871C76.3008 12.3871 76.8004 12.3871 77.4004 12.4871C77.7004 12.4871 77.9002 12.5873 78.2002 12.6873C78.4002 12.7873 78.7004 12.8872 78.9004 13.0872C79.1004 13.1872 79.3 13.3872 79.5 13.5872C80.3 14.2872 80.7002 15.387 80.7002 16.387C80.7002 17.387 80.3 18.4873 79.5 19.1873C79.3 19.3873 79.1004 19.4873 78.9004 19.6873C78.7004 19.7873 78.4002 19.9872 78.2002 20.0872C78.0002 20.1872 77.7004 20.2869 77.4004 20.2869C77.1004 20.3869 76.9006 20.4871 76.6006 20.4871Z" fill="#FFC44C"/>
    <path d="M16.5 20.4871C16.2 20.4871 16.0002 20.487 15.7002 20.387C15.4002 20.287 15.2004 20.2873 14.9004 20.1873C14.7004 20.0873 14.4002 19.9869 14.2002 19.7869C14.0002 19.5869 13.8006 19.4869 13.6006 19.2869C12.8006 18.5869 12.4004 17.4871 12.4004 16.4871C12.4004 15.3871 12.8006 14.3873 13.6006 13.6873C13.8006 13.4873 14.0002 13.2873 14.2002 13.1873C14.4002 12.9873 14.7004 12.8869 14.9004 12.7869C15.1004 12.6869 15.4002 12.5872 15.7002 12.5872C16.2002 12.4872 16.7008 12.4872 17.3008 12.5872C17.6008 12.5872 17.8006 12.6869 18.1006 12.7869C18.3006 12.8869 18.6008 12.9873 18.8008 13.1873C19.0008 13.2873 19.2004 13.4873 19.4004 13.6873C20.1004 14.4873 20.6006 15.4871 20.6006 16.4871C20.6006 17.4871 20.2004 18.5869 19.4004 19.2869C19.2004 19.4869 19.0008 19.5869 18.8008 19.7869C18.6008 19.8869 18.3006 20.0873 18.1006 20.1873C17.9006 20.2873 17.6008 20.387 17.3008 20.387C17.0008 20.387 16.7 20.4871 16.5 20.4871Z" fill="#FFC44C"/>
    <path d="M11.5 79.5873C10.5 79.5873 9.4002 79.1871 8.7002 78.3871C7.9002 77.5871 7.5 76.5873 7.5 75.5873C7.5 75.2873 7.50059 75.087 7.60059 74.787C7.60059 74.587 7.70078 74.2873 7.80078 74.0873C7.90078 73.8873 8.0002 73.5871 8.2002 73.3871C8.3002 73.1871 8.5002 72.987 8.7002 72.787C9.6002 71.887 11.0008 71.3874 12.3008 71.6874C12.6008 71.7874 12.8006 71.7871 13.1006 71.8871C13.3006 71.9871 13.6008 72.087 13.8008 72.287C14.0008 72.487 14.2004 72.587 14.4004 72.787C15.1004 73.487 15.6006 74.5873 15.6006 75.5873C15.6006 76.5873 15.2004 77.6871 14.4004 78.3871C14.2004 78.5871 14.0008 78.6871 13.8008 78.8871C13.6008 78.9871 13.3006 79.187 13.1006 79.287C12.9006 79.387 12.6008 79.4872 12.3008 79.4872C12.0008 79.5872 11.7 79.5873 11.5 79.5873Z" fill="#FFC44C"/>
    <path d="M46.4004 77.4873C63.3003 77.4873 77 63.5633 77 46.3872C77 29.2112 63.3003 15.2871 46.4004 15.2871C29.5005 15.2871 15.8008 29.2112 15.8008 46.3872C15.8008 63.5633 29.5005 77.4873 46.4004 77.4873Z" fill="url(#paint0_linear_0_6202)"/>
    <path d="M138.819 125.688C138.319 125.688 137.819 125.688 137.319 125.688C135.119 125.588 133.42 123.688 133.52 121.488C133.62 119.288 135.42 117.588 137.72 117.688C151.52 118.288 163.22 107.588 163.92 93.7881C164.52 79.9881 153.82 68.2884 140.02 67.5884C137.72 67.4884 135.419 67.6881 133.119 68.2881C131.919 68.5881 130.72 68.2883 129.72 67.4883C128.72 66.6883 128.22 65.5882 128.22 64.3882C128.22 48.0882 115.519 34.7884 99.3193 34.0884C91.2193 33.6884 83.5195 36.5883 77.5195 41.9883C71.5195 47.4883 68.0197 54.8883 67.7197 62.9883L67.6191 65.3882L59.6191 65.0884L59.7197 62.6885C60.2197 52.4885 64.6191 42.9884 72.1191 36.0884C79.6191 29.1884 89.4197 25.5884 99.7197 26.0884C118.72 26.8884 133.82 41.2885 136.02 59.6885C137.52 59.5885 139.02 59.4884 140.52 59.5884C158.72 60.3884 172.919 75.8884 172.119 94.0884C171.019 111.788 156.319 125.688 138.819 125.688Z" fill="white"/>
    <path d="M56.8196 126.788C56.7196 126.788 56.7194 126.788 56.6194 126.788C47.8194 126.388 39.62 122.588 33.72 116.088C27.82 109.588 24.7194 101.088 25.1194 92.2881C25.9194 74.0881 41.4194 59.8885 59.6194 60.6885C70.9194 61.1885 81.1196 67.3885 86.8196 77.1885C87.9196 79.0885 87.2196 81.5885 85.3196 82.6885C83.4196 83.7885 80.9196 83.0885 79.8196 81.1885C75.5196 73.6885 67.82 69.0885 59.22 68.6885C45.42 68.0885 33.7198 78.7884 33.0198 92.5884C32.7198 99.2884 35.0198 105.688 39.5198 110.588C44.0198 115.488 50.2202 118.388 56.9202 118.688C59.1202 118.788 60.82 120.688 60.72 122.888C60.72 125.088 58.9196 126.788 56.8196 126.788Z" fill="white"/>
    <path d="M91.7197 99.2881H118.72L101.619 122.588H121.319L83.5195 167.088L92.3193 133.188H76.6191L91.7197 99.2881Z" fill="url(#paint1_linear_0_6202)"/>
    <defs>
        <linearGradient id="paint0_linear_0_6202" x1="46.4102" y1="77.4261" x2="46.4102" y2="15.2839" gradientUnits="userSpaceOnUse">
            <stop stop-color="#FFC14C"/>
            <stop offset="1" stop-color="#FFD04D"/>
        </linearGradient>
        <linearGradient id="paint1_linear_0_6202" x1="99.1209" y1="99.4067" x2="99.1209" y2="167.258" gradientUnits="userSpaceOnUse">
            <stop stop-color="#FF8D55"/>
            <stop offset="1" stop-color="#FF6B57"/>
        </linearGradient>
    </defs>
</svg>
