<svg width="172" height="121" viewBox="0 0 172 121" fill="none" xmlns="http://www.w3.org/2000/svg">
    <path d="M57.7002 8.1751C57.4002 8.1751 57.2004 8.175 56.9004 8.075C56.6004 8.075 56.3996 7.97529 56.0996 7.87529C55.8996 7.77529 55.6004 7.6749 55.4004 7.4749C55.2004 7.2749 54.9998 7.1749 54.7998 6.9749C54.5998 6.7749 54.4998 6.57529 54.2998 6.37529C54.1998 6.17529 54.0004 5.8751 53.9004 5.6751C53.8004 5.4751 53.7002 5.17529 53.7002 4.87529C53.6002 4.57529 53.5996 4.375 53.5996 4.075C53.5996 3.775 53.6002 3.5752 53.7002 3.2752C53.7002 2.9752 53.8004 2.7749 53.9004 2.4749C54.0004 2.1749 54.0998 1.9752 54.2998 1.7752C54.4998 1.5752 54.5998 1.3751 54.7998 1.1751C54.9998 0.975098 55.2004 0.775098 55.4004 0.675098C55.6004 0.575098 55.7996 0.375195 56.0996 0.275195C56.2996 0.175195 56.6004 0.075 56.9004 0.075C57.4004 -0.025 57.9 -0.025 58.5 0.075C58.7 0.075 58.9998 0.175195 59.2998 0.275195C59.4998 0.375195 59.8 0.475098 60 0.675098C60.2 0.775098 60.3996 0.975098 60.5996 1.1751C60.7996 1.3751 60.8996 1.5752 61.0996 1.7752C61.1996 1.9752 61.4 2.1749 61.5 2.4749C61.6 2.6749 61.7002 2.9752 61.7002 3.2752C61.7002 3.5752 61.7998 3.775 61.7998 4.075C61.7998 4.375 61.8002 4.57529 61.7002 4.87529C61.7002 5.17529 61.6 5.3751 61.5 5.6751C61.4 5.8751 61.2996 6.17529 61.0996 6.37529C60.9996 6.57529 60.7996 6.7749 60.5996 6.9749C60.3996 7.1749 60.2 7.2749 60 7.4749C59.8 7.5749 59.4998 7.77529 59.2998 7.87529C59.0998 7.97529 58.8 8.075 58.5 8.075C58.2 8.175 58.0002 8.1751 57.7002 8.1751Z" fill="#FFC44C"/>
    <path d="M4.09961 61.7752C3.79961 61.7752 3.5998 61.7751 3.2998 61.6751C3.0998 61.5751 2.8 61.5749 2.5 61.4749C2.3 61.3749 1.9998 61.275 1.7998 61.075C1.5998 60.875 1.4002 60.775 1.2002 60.575C1.0002 60.375 0.800195 60.1749 0.700195 59.9749C0.600195 59.7749 0.399805 59.4752 0.299805 59.2752C0.199805 59.0752 0.0996094 58.7749 0.0996094 58.4749C-0.000390604 58.2749 2.34741e-08 57.9751 2.34741e-08 57.6751C2.34741e-08 56.6751 0.400195 55.5753 1.2002 54.8753C1.4002 54.6753 1.5998 54.4753 1.7998 54.3753C1.9998 54.1753 2.3 54.0749 2.5 53.9749C2.7 53.8749 2.9998 53.7752 3.2998 53.7752C3.7998 53.6752 4.30039 53.6752 4.90039 53.7752C5.10039 53.7752 5.39961 53.8749 5.59961 53.9749C5.79961 54.0749 6.0998 54.1753 6.2998 54.3753C6.4998 54.4753 6.70039 54.6753 6.90039 54.8753C7.70039 55.6753 8.09961 56.6751 8.09961 57.6751C8.09961 57.9751 8.1 58.1749 8 58.4749C8 58.7749 7.8998 58.9752 7.7998 59.2752C7.6998 59.4752 7.60039 59.7749 7.40039 59.9749C7.20039 60.1749 7.10039 60.375 6.90039 60.575C6.70039 60.775 6.4998 60.875 6.2998 61.075C6.0998 61.175 5.89961 61.3749 5.59961 61.4749C5.39961 61.5749 5.10039 61.6751 4.90039 61.6751C4.60039 61.7751 4.39961 61.7752 4.09961 61.7752Z" fill="#FFC44C"/>
    <path d="M95.5996 23.8753C95.2996 23.8753 95.0998 23.8752 94.7998 23.7752C94.4998 23.6752 94.3 23.675 94 23.575C93.8 23.475 93.4998 23.3751 93.2998 23.1751C93.0998 23.0751 92.9002 22.8751 92.7002 22.6751C92.5002 22.4751 92.4002 22.275 92.2002 22.075C92.1002 21.875 91.8998 21.5753 91.7998 21.3753C91.6998 21.1753 91.5996 20.8751 91.5996 20.6751C91.5996 20.3751 91.5 20.1753 91.5 19.8753C91.5 18.8753 91.9002 17.775 92.7002 17.075C93.6002 16.175 94.9998 15.6749 96.2998 15.9749C96.4998 15.9749 96.7996 16.0751 97.0996 16.1751C97.2996 16.2751 97.5998 16.375 97.7998 16.575C97.9998 16.675 98.2004 16.875 98.4004 17.075C99.1004 17.775 99.5996 18.8753 99.5996 19.8753C99.5996 20.9753 99.2004 21.9751 98.4004 22.6751C98.2004 22.8751 97.9998 23.0751 97.7998 23.1751C97.5998 23.2751 97.2996 23.475 97.0996 23.575C96.8996 23.675 96.5998 23.7752 96.2998 23.7752C96.0998 23.8752 95.8996 23.8753 95.5996 23.8753Z" fill="#FFC44C"/>
    <path d="M19.7998 99.6751C18.6998 99.6751 17.7 99.2749 17 98.4749C16.3 97.7749 15.7998 96.6751 15.7998 95.6751C15.7998 94.6751 16.2 93.5753 17 92.8753C17.2 92.6753 17.3996 92.5753 17.5996 92.3753C17.7996 92.2753 18.0998 92.0749 18.2998 91.9749C18.4998 91.8749 18.7996 91.7752 19.0996 91.7752C19.5996 91.6752 20.1002 91.6752 20.7002 91.7752C21.0002 91.7752 21.2 91.8749 21.5 91.9749C21.7 92.0749 22.0002 92.1753 22.2002 92.3753C22.4002 92.4753 22.5998 92.6753 22.7998 92.8753C23.4998 93.6753 24 94.6751 24 95.6751C24 96.6751 23.5998 97.7749 22.7998 98.4749C22.5998 98.6749 22.4002 98.7749 22.2002 98.9749C22.0002 99.0749 21.7 99.2753 21.5 99.3753C21.3 99.4753 21.0002 99.575 20.7002 99.575C20.4002 99.575 20.0998 99.6751 19.7998 99.6751Z" fill="#FFC44C"/>
    <path d="M19.7998 23.8753C18.6998 23.8753 17.7 23.4751 17 22.6751C16.3 21.9751 15.7998 20.8753 15.7998 19.8753C15.7998 19.5753 15.8004 19.375 15.9004 19.075C16.0004 18.875 15.9996 18.5752 16.0996 18.2752C16.1996 18.0752 16.3 17.775 16.5 17.575C16.6 17.375 16.8 17.175 17 16.975C17.2 16.775 17.3996 16.575 17.5996 16.475C17.7996 16.275 18.0998 16.175 18.2998 16.075C18.4998 15.975 18.7996 15.8753 19.0996 15.8753C20.3996 15.5753 21.8002 16.075 22.7002 16.975C22.9002 17.175 23.1002 17.375 23.2002 17.575C23.3002 17.775 23.4996 18.0752 23.5996 18.2752C23.6996 18.4752 23.7998 18.775 23.7998 19.075C23.7998 19.375 23.9004 19.5753 23.9004 19.8753C23.9004 20.9753 23.5002 21.9751 22.7002 22.6751C22.5002 22.8751 22.2996 23.0751 22.0996 23.1751C21.8996 23.2751 21.6004 23.475 21.4004 23.575C21.2004 23.675 20.8996 23.7752 20.5996 23.7752C20.2996 23.8752 20.0998 23.8753 19.7998 23.8753Z" fill="#FFC44C"/>
    <path d="M57.7002 8.1751C57.4002 8.1751 57.2004 8.175 56.9004 8.075C56.6004 8.075 56.3996 7.97529 56.0996 7.87529C55.8996 7.77529 55.6004 7.6749 55.4004 7.4749C55.2004 7.2749 54.9998 7.1749 54.7998 6.9749C54.5998 6.7749 54.4998 6.57529 54.2998 6.37529C54.1998 6.17529 54.0004 5.8751 53.9004 5.6751C53.8004 5.4751 53.7002 5.17529 53.7002 4.87529C53.6002 4.57529 53.5996 4.375 53.5996 4.075C53.5996 3.775 53.6002 3.5752 53.7002 3.2752C53.7002 2.9752 53.8004 2.7749 53.9004 2.4749C54.0004 2.1749 54.0998 1.9752 54.2998 1.7752C54.4998 1.5752 54.5998 1.3751 54.7998 1.1751C54.9998 0.975098 55.2004 0.775098 55.4004 0.675098C55.6004 0.575098 55.7996 0.375195 56.0996 0.275195C56.2996 0.175195 56.6004 0.075 56.9004 0.075C57.4004 -0.025 57.9 -0.025 58.5 0.075C58.7 0.075 58.9998 0.175195 59.2998 0.275195C59.4998 0.375195 59.8 0.475098 60 0.675098C60.2 0.775098 60.3996 0.975098 60.5996 1.1751C60.7996 1.3751 60.8996 1.5752 61.0996 1.7752C61.1996 1.9752 61.4 2.1749 61.5 2.4749C61.6 2.6749 61.7002 2.9752 61.7002 3.2752C61.7002 3.5752 61.7998 3.775 61.7998 4.075C61.7998 4.375 61.8002 4.57529 61.7002 4.87529C61.7002 5.17529 61.6 5.3751 61.5 5.6751C61.4 5.8751 61.2996 6.17529 61.0996 6.37529C60.9996 6.57529 60.7996 6.7749 60.5996 6.9749C60.3996 7.1749 60.2 7.2749 60 7.4749C59.8 7.5749 59.4998 7.77529 59.2998 7.87529C59.0998 7.97529 58.8 8.075 58.5 8.075C58.2 8.175 58.0002 8.1751 57.7002 8.1751Z" fill="#FFC44C"/>
    <path d="M4.09961 61.7752C3.79961 61.7752 3.5998 61.7751 3.2998 61.6751C3.0998 61.5751 2.8 61.5749 2.5 61.4749C2.3 61.3749 1.9998 61.275 1.7998 61.075C1.5998 60.875 1.4002 60.775 1.2002 60.575C1.0002 60.375 0.800195 60.1749 0.700195 59.9749C0.600195 59.7749 0.399805 59.4752 0.299805 59.2752C0.199805 59.0752 0.0996094 58.7749 0.0996094 58.4749C-0.000390604 58.2749 2.34741e-08 57.9751 2.34741e-08 57.6751C2.34741e-08 56.6751 0.400195 55.5753 1.2002 54.8753C1.4002 54.6753 1.5998 54.4753 1.7998 54.3753C1.9998 54.1753 2.3 54.0749 2.5 53.9749C2.7 53.8749 2.9998 53.7752 3.2998 53.7752C3.7998 53.6752 4.30039 53.6752 4.90039 53.7752C5.10039 53.7752 5.39961 53.8749 5.59961 53.9749C5.79961 54.0749 6.0998 54.1753 6.2998 54.3753C6.4998 54.4753 6.70039 54.6753 6.90039 54.8753C7.70039 55.6753 8.09961 56.6751 8.09961 57.6751C8.09961 57.9751 8.1 58.1749 8 58.4749C8 58.7749 7.8998 58.9752 7.7998 59.2752C7.6998 59.4752 7.60039 59.7749 7.40039 59.9749C7.20039 60.1749 7.10039 60.375 6.90039 60.575C6.70039 60.775 6.4998 60.875 6.2998 61.075C6.0998 61.175 5.89961 61.3749 5.59961 61.4749C5.39961 61.5749 5.10039 61.6751 4.90039 61.6751C4.60039 61.7751 4.39961 61.7752 4.09961 61.7752Z" fill="#FFC44C"/>
    <path d="M95.5996 23.8753C95.2996 23.8753 95.0998 23.8752 94.7998 23.7752C94.4998 23.6752 94.3 23.675 94 23.575C93.8 23.475 93.4998 23.3751 93.2998 23.1751C93.0998 23.0751 92.9002 22.8751 92.7002 22.6751C92.5002 22.4751 92.4002 22.275 92.2002 22.075C92.1002 21.875 91.8998 21.5753 91.7998 21.3753C91.6998 21.1753 91.5996 20.8751 91.5996 20.6751C91.5996 20.3751 91.5 20.1753 91.5 19.8753C91.5 18.8753 91.9002 17.775 92.7002 17.075C93.6002 16.175 94.9998 15.6749 96.2998 15.9749C96.4998 15.9749 96.7996 16.0751 97.0996 16.1751C97.2996 16.2751 97.5998 16.375 97.7998 16.575C97.9998 16.675 98.2004 16.875 98.4004 17.075C99.1004 17.775 99.5996 18.8753 99.5996 19.8753C99.5996 20.9753 99.2004 21.9751 98.4004 22.6751C98.2004 22.8751 97.9998 23.0751 97.7998 23.1751C97.5998 23.2751 97.2996 23.475 97.0996 23.575C96.8996 23.675 96.5998 23.7752 96.2998 23.7752C96.0998 23.8752 95.8996 23.8753 95.5996 23.8753Z" fill="#FFC44C"/>
    <path d="M19.7998 99.6751C18.6998 99.6751 17.7 99.2749 17 98.4749C16.3 97.7749 15.7998 96.6751 15.7998 95.6751C15.7998 94.6751 16.2 93.5753 17 92.8753C17.2 92.6753 17.3996 92.5753 17.5996 92.3753C17.7996 92.2753 18.0998 92.0749 18.2998 91.9749C18.4998 91.8749 18.7996 91.7752 19.0996 91.7752C19.5996 91.6752 20.1002 91.6752 20.7002 91.7752C21.0002 91.7752 21.2 91.8749 21.5 91.9749C21.7 92.0749 22.0002 92.1753 22.2002 92.3753C22.4002 92.4753 22.5998 92.6753 22.7998 92.8753C23.4998 93.6753 24 94.6751 24 95.6751C24 96.6751 23.5998 97.7749 22.7998 98.4749C22.5998 98.6749 22.4002 98.7749 22.2002 98.9749C22.0002 99.0749 21.7 99.2753 21.5 99.3753C21.3 99.4753 21.0002 99.575 20.7002 99.575C20.4002 99.575 20.0998 99.6751 19.7998 99.6751Z" fill="#FFC44C"/>
    <path d="M19.7998 23.8753C18.6998 23.8753 17.7 23.4751 17 22.6751C16.3 21.9751 15.7998 20.8753 15.7998 19.8753C15.7998 19.5753 15.8004 19.375 15.9004 19.075C16.0004 18.875 15.9996 18.5752 16.0996 18.2752C16.1996 18.0752 16.3 17.775 16.5 17.575C16.6 17.375 16.8 17.175 17 16.975C17.2 16.775 17.3996 16.575 17.5996 16.475C17.7996 16.275 18.0998 16.175 18.2998 16.075C18.4998 15.975 18.7996 15.8753 19.0996 15.8753C20.3996 15.5753 21.8002 16.075 22.7002 16.975C22.9002 17.175 23.1002 17.375 23.2002 17.575C23.3002 17.775 23.4996 18.0752 23.5996 18.2752C23.6996 18.4752 23.7998 18.775 23.7998 19.075C23.7998 19.375 23.9004 19.5753 23.9004 19.8753C23.9004 20.9753 23.5002 21.9751 22.7002 22.6751C22.5002 22.8751 22.2996 23.0751 22.0996 23.1751C21.8996 23.2751 21.6004 23.475 21.4004 23.575C21.2004 23.675 20.8996 23.7752 20.5996 23.7752C20.2996 23.8752 20.0998 23.8753 19.7998 23.8753Z" fill="#FFC44C"/>
    <path d="M57.5 96.7754C78.8182 96.7754 96.0996 79.2248 96.0996 57.5752C96.0996 35.9256 78.8182 18.3755 57.5 18.3755C36.1818 18.3755 18.9004 35.9256 18.9004 57.5752C18.9004 79.2248 36.1818 96.7754 57.5 96.7754Z" fill="url(#paint0_linear_0_6478)"/>
    <path d="M116.2 120.075C112.3 120.075 108.499 118.975 105.099 116.775C100.999 114.075 95.6993 114.075 91.5993 116.775C91.5993 116.775 91.4997 116.775 91.4997 116.875C84.7997 121.175 76.1001 121.175 69.4001 116.875C65.3001 114.175 59.9997 114.175 55.9997 116.875C54.1997 118.075 51.6997 117.575 50.4997 115.675C49.2997 113.775 49.7999 111.375 51.6999 110.175C58.3999 105.775 67.1001 105.775 73.9001 110.175C78.0001 112.875 83.2995 112.875 87.2995 110.175C87.2995 110.175 87.4001 110.175 87.4001 110.075C94.1001 105.775 102.8 105.775 109.5 110.075C113.6 112.775 118.9 112.775 123 110.075C124.9 108.875 127.3 109.375 128.5 111.275C129.7 113.175 129.199 115.575 127.299 116.775C123.899 118.975 120.1 120.075 116.2 120.075Z" fill="white"/>
    <path d="M158.7 95.7753C154.8 95.7753 150.999 94.675 147.599 92.475C143.499 89.775 138.199 89.775 134.099 92.475C134.099 92.475 134 92.4751 134 92.5751C127.3 96.8751 118.6 96.8751 111.9 92.5751C107.8 89.8751 102.5 89.8751 98.4997 92.5751C96.5997 93.7751 94.1997 93.2754 92.9997 91.3754C91.7997 89.4754 92.2999 87.0754 94.1999 85.8754C100.9 81.4754 109.6 81.4754 116.4 85.8754C120.5 88.5754 125.799 88.5754 129.799 85.8754C129.799 85.8754 129.9 85.8753 129.9 85.7753C136.6 81.4753 145.3 81.4753 152 85.7753C156.1 88.4753 161.4 88.4753 165.5 85.7753C167.4 84.5753 169.8 85.075 171 86.975C172.2 88.875 171.699 91.275 169.799 92.475C166.399 94.675 162.6 95.7753 158.7 95.7753Z" fill="white"/>
    <path d="M123.4 71.5751C119.5 71.5751 115.7 70.4753 112.3 68.2753C108.2 65.5753 102.9 65.5753 98.7998 68.2753C98.7998 68.2753 98.8002 68.2753 98.7002 68.2753C92.0002 72.6753 83.2996 72.5753 76.5996 68.2753C74.6996 67.0753 74.2004 64.5753 75.4004 62.7753C76.6004 60.8753 79.1004 60.3751 80.9004 61.5751C85.0004 64.2751 90.2998 64.2751 94.2998 61.5751C94.2998 61.5751 94.3004 61.5751 94.4004 61.5751C101.1 57.1751 109.8 57.2751 116.5 61.5751C120.6 64.2751 125.9 64.2751 130 61.5751C131.9 60.3751 134.3 60.8753 135.5 62.7753C136.7 64.6753 136.2 67.0753 134.3 68.2753C131.1 70.4753 127.3 71.5751 123.4 71.5751Z" fill="white"/>
    <defs>
        <linearGradient id="paint0_linear_0_6478" x1="57.5511" y1="96.7056" x2="57.5511" y2="18.3957" gradientUnits="userSpaceOnUse">
            <stop stop-color="#FFC14C"/>
            <stop offset="1" stop-color="#FFD04D"/>
        </linearGradient>
    </defs>
</svg>
